<svg width="22" height="16" viewBox="0 0 22 16" fill="none" xmlns="http://www.w3.org/2000/svg">
<rect width="22" height="16" rx="2" fill="#FF3F34"/>
<path d="M10.5245 3.46353C10.6741 3.00287 11.3259 3.00287 11.4755 3.46353L12.2348 5.80041C12.3018 6.00642 12.4937 6.1459 12.7104 6.1459H15.1675C15.6519 6.1459 15.8532 6.76571 15.4614 7.05041L13.4735 8.49468C13.2983 8.622 13.2249 8.84768 13.2919 9.0537L14.0512 11.3906C14.2009 11.8512 13.6736 12.2343 13.2818 11.9496L11.2939 10.5053C11.1186 10.378 10.8814 10.378 10.7061 10.5053L8.71824 11.9496C8.32638 12.2343 7.79914 11.8512 7.94882 11.3906L8.70812 9.0537C8.77505 8.84768 8.70172 8.622 8.52648 8.49468L6.53861 7.05041C6.14675 6.76571 6.34814 6.1459 6.8325 6.1459H9.28964C9.50626 6.1459 9.69824 6.00642 9.76517 5.80041L10.5245 3.46353Z" fill="#DBFF00"/>
</svg>
