<?xml version="1.0" standalone="no"?>
<!DOCTYPE svg PUBLIC "-//W3C//DTD SVG 1.1//EN" "http://www.w3.org/Graphics/SVG/1.1/DTD/svg11.dtd" >
<svg xmlns="http://www.w3.org/2000/svg">
<metadata>Generated by IcoMoon</metadata>
<defs>
<font id="nothan_iconV10" horiz-adv-x="1024">
<font-face units-per-em="1024" ascent="960" descent="-64" />
<missing-glyph horiz-adv-x="1024" />
<glyph unicode="&#x20;" horiz-adv-x="512" d="" />
<glyph unicode="&#xe900;" d="M992 95.978h-448c-17.664 0-32 14.336-32 32s0 622.336 0 640 14.336 32 32 32h448c17.664 0 32-14.336 32-32v-640c0-17.664-14.336-32-32-32z" />
<glyph unicode="&#xe901;" d="M672 607.978h-128c-17.664 0-32 14.336-32 32s14.336 32 32 32h128c17.664 0 32-14.336 32-32s-14.336-32-32-32z" />
<glyph unicode="&#xe902;" d="M672 479.978h-128c-17.664 0-32 14.336-32 32s14.336 32 32 32h128c17.664 0 32-14.336 32-32s-14.336-32-32-32z" />
<glyph unicode="&#xe903;" d="M672 351.978h-128c-17.664 0-32 14.336-32 32s14.336 32 32 32h128c17.664 0 32-14.336 32-32s-14.336-32-32-32z" />
<glyph unicode="&#xe904;" d="M672 223.978h-128c-17.664 0-32 14.336-32 32s14.336 32 32 32h128c17.664 0 32-14.336 32-32s-14.336-32-32-32z" />
<glyph unicode="&#xe905;" d="M864 607.978h-64c-17.664 0-32 14.336-32 32s14.336 32 32 32h64c17.664 0 32-14.336 32-32s-14.336-32-32-32z" />
<glyph unicode="&#xe906;" d="M864 479.978h-64c-17.664 0-32 14.336-32 32s14.336 32 32 32h64c17.664 0 32-14.336 32-32s-14.336-32-32-32z" />
<glyph unicode="&#xe907;" d="M864 351.978h-64c-17.664 0-32 14.336-32 32s14.336 32 32 32h64c17.664 0 32-14.336 32-32s-14.336-32-32-32z" />
<glyph unicode="&#xe908;" d="M864 223.978h-64c-17.664 0-32 14.336-32 32s14.336 32 32 32h64c17.664 0 32-14.336 32-32s-14.336-32-32-32z" />
<glyph unicode="&#xe909;" d="M564.416 920.618c-7.296 6.080-17.088 8.704-26.304 6.784l-512-96c-15.168-2.816-26.112-16-26.112-31.424v-704c0-15.36 10.944-28.608 26.112-31.424l512-96c1.92-0.384 3.904-0.576 5.888-0.576 7.424 0 14.656 2.56 20.416 7.36 7.36 6.080 11.584 15.168 11.584 24.64v896c0 9.536-4.224 18.56-11.584 24.64z" />
<glyph unicode="&#xe90a;" d="M440.064 341.034l-101.184 115.648 102.336 131.584c10.88 13.952 8.32 34.048-5.568 44.928s-33.984 8.32-44.928-5.568l-94.784-121.856-79.872 91.264c-11.712 13.44-31.936 14.656-45.12 3.008-13.312-11.648-14.656-31.872-3.008-45.12l88-100.608-89.216-114.688c-10.88-13.952-8.32-34.048 5.568-44.928 5.888-4.544 12.864-6.72 19.712-6.72 9.536 0 18.944 4.224 25.28 12.352l81.6 104.96 93.056-106.304c6.336-7.296 15.168-11.008 24.064-11.008 7.488 0 14.976 2.624 21.056 7.936 13.312 11.648 14.656 31.872 3.008 45.12z" />
<glyph unicode="&#xe90b;" d="M256 960c-35.2 0-64-28.8-64-64v-896c0-35.2 28.8-64 64-64h640c35.2 0 64 28.8 64 64v704l-256 256h-448z" />
<glyph unicode="&#xe90c;" d="M768 704h192l-256 256v-192c0-35.2 28.8-64 64-64z" />
<glyph unicode="&#xe90d;" d="M960 512l-192 192h192z" />
<glyph unicode="&#xe90e;" d="M832 128c0-17.6-14.4-32-32-32h-704c-17.6 0-32 14.4-32 32v320c0 17.6 14.4 32 32 32h704c17.6 0 32-14.4 32-32v-320z" />
<glyph unicode="&#xe90f;" d="M265.568 337.056h-44.768c-22.272 0-22.272 32.736 0 32.736h121.024c22.784 0 22.784-32.736 0-32.736h-42.496v-129.184c0-22.24-33.792-22.784-33.792 0v129.184h0.032z" />
<glyph unicode="&#xe910;" d="M448.832 307.648l44.544 55.776c13.312 17.376 39.136-4.864 24.576-21.504-15.36-18.176-31.456-37.888-46.848-58.048l52.224-64.992c14.048-19.2-14.080-37.632-27.904-18.688l-47.072 60.384-46.304-61.664c-13.056-18.656-41.984 2.304-27.36 19.712l51.392 65.248c-16.096 20.192-31.712 39.872-47.328 58.048-16.128 19.2 13.824 38.88 25.568 20.96l44.512-55.232z" />
<glyph unicode="&#xe911;" d="M596.576 337.056h-44.736c-22.272 0-22.272 32.736 0 32.736h120.992c22.784 0 22.784-32.736 0-32.736h-42.464v-129.184c0-22.24-33.792-22.784-33.792 0v129.184z" />
<glyph unicode="&#xe912;" d="M800 96h-608v-32h608c17.6 0 32 14.4 32 32v32c0-17.6-14.4-32-32-32z" />
<glyph unicode="&#xe913;" d="M589.312 933.972c-5.062 4.112-11.726 5.684-18.090 4.266l-554.666-128c-9.762-2.244-16.65-10.976-16.556-20.992v-725.334c0.004-10.526 7.686-19.478 18.090-21.078l554.666-85.334c11.646-1.79 22.538 6.198 24.328 17.842 0.164 1.070 0.248 2.152 0.248 3.234v938.67c0.020 6.506-2.934 12.664-8.020 16.726z" />
<glyph unicode="&#xe914;" d="M1002.668 42.58h-426.668c-11.782 0-21.334 9.552-21.334 21.334s9.552 21.334 21.334 21.334h405.334v725.332h-405.334c-11.782 0-21.334 9.552-21.334 21.334s9.552 21.332 21.334 21.332h426.666c11.782 0 21.334-9.552 21.334-21.334v-768c0-11.782-9.55-21.332-21.332-21.332z" />
<glyph unicode="&#xe915;" d="M362.668 255.912c-9.506 0.010-17.856 6.31-20.48 15.446l-64.854 226.902-64.854-226.902c-4.684-11.322-17.66-16.704-28.984-12.020-5.444 2.252-9.768 6.576-12.020 12.020l-85.332 298.666c-3.572 11.228 2.636 23.224 13.864 26.796s23.224-2.636 26.796-13.864c0.126-0.396 0.24-0.796 0.344-1.198l64.852-226.858 64.854 226.9c4.684 11.322 17.66 16.704 28.984 12.020 5.444-2.252 9.768-6.576 12.020-12.020l64.81-226.902 64.854 226.858c3.070 11.228 14.662 17.842 25.89 14.772 0.16-0.044 0.318-0.090 0.478-0.136 11.32-3.244 17.87-15.046 14.634-26.368l-85.334-298.666c-2.628-9.152-11.002-15.454-20.522-15.446z" />
<glyph unicode="&#xe916;" d="M917.334 682.58h-341.334c-11.782 0-21.334 9.552-21.334 21.334s9.552 21.334 21.334 21.334h341.334c11.782 0 21.334-9.552 21.334-21.334 0-11.784-9.552-21.334-21.334-21.334z" />
<glyph unicode="&#xe917;" d="M917.334 554.58h-341.334c-11.782 0-21.334 9.552-21.334 21.334s9.552 21.334 21.334 21.334h341.334c11.782 0 21.334-9.552 21.334-21.334s-9.552-21.334-21.334-21.334z" />
<glyph unicode="&#xe918;" d="M917.334 426.58h-341.334c-11.782 0-21.334 9.552-21.334 21.334s9.552 21.334 21.334 21.334h341.334c11.782 0 21.334-9.552 21.334-21.334 0-11.784-9.552-21.334-21.334-21.334z" />
<glyph unicode="&#xe919;" d="M917.334 298.58h-341.334c-11.782 0-21.334 9.552-21.334 21.334s9.552 21.334 21.334 21.334h341.334c11.782 0 21.334-9.552 21.334-21.334 0-11.784-9.552-21.334-21.334-21.334z" />
<glyph unicode="&#xe91a;" d="M917.334 170.58h-341.334c-11.782 0-21.334 9.552-21.334 21.334s9.552 21.334 21.334 21.334h341.334c11.782 0 21.334-9.552 21.334-21.334 0-11.784-9.552-21.334-21.334-21.334z" />
<glyph unicode="&#xe91b;" glyph-name="picture" d="M984 208c-22.092 0-40-17.908-40-40 0-44.112-35.888-80-80-80h-305.33l-91.97 119.312 290.294 369.236 196.132-233.982c0.39-0.472 0.79-0.936 1.2-1.388 0.014-0.016 0.028-0.032 0.042-0.048 0.048-0.054 0.098-0.108 0.148-0.162 3.642-3.978 7.922-7.060 12.552-9.218 4.756-2.224 10.024-3.54 15.576-3.724 0.102-0.004 0.204-0.008 0.306-0.010 0.018 0 0.036 0 0.052-0.002 2.858-0.072 5.726 0.16 8.552 0.7l0.106 0.020c0.124 0.024 0.248 0.048 0.374 0.074 0.050 0.010 0.102 0.022 0.154 0.032 0.108 0.022 0.216 0.044 0.324 0.068 0.060 0.014 0.12 0.026 0.18 0.040 0.098 0.022 0.196 0.044 0.294 0.066 0.070 0.016 0.14 0.032 0.208 0.050 0.088 0.020 0.176 0.042 0.264 0.062 0.076 0.018 0.15 0.038 0.226 0.056 0.082 0.020 0.166 0.042 0.248 0.062 0.076 0.020 0.15 0.040 0.226 0.060 0.084 0.022 0.166 0.044 0.25 0.066 0.076 0.020 0.152 0.042 0.228 0.062l0.234 0.064c0.082 0.024 0.164 0.048 0.246 0.070 0.080 0.022 0.158 0.046 0.236 0.068 0.064 0.018 0.128 0.038 0.194 0.058 0.098 0.030 0.198 0.060 0.294 0.090 0.054 0.016 0.108 0.034 0.16 0.050 0.1 0.030 0.198 0.062 0.298 0.094 0.060 0.020 0.12 0.040 0.18 0.060 0.098 0.032 0.198 0.066 0.296 0.098 0.046 0.016 0.092 0.032 0.138 0.046 0.11 0.038 0.222 0.076 0.332 0.114 0.042 0.014 0.084 0.030 0.126 0.044 0.114 0.040 0.226 0.080 0.338 0.122 0.036 0.014 0.072 0.026 0.108 0.040 0.124 0.046 0.246 0.090 0.368 0.138l0.062 0.024c0.136 0.052 0.272 0.104 0.408 0.158 0.008 0.002 0.016 0.006 0.024 0.010 0.146 0.058 0.292 0.116 0.438 0.176 1.778 0.726 3.518 1.588 5.206 2.586 0.024 0.014 0.048 0.028 0.072 0.042 0.114 0.068 0.228 0.136 0.342 0.204 2.156 1.31 4.178 2.818 6.042 4.5 0.034 0.030 0.066 0.060 0.1 0.090 0.030 0.028 0.060 0.056 0.090 0.082 4.010 3.658 7.116 7.962 9.286 12.622 2.23 4.774 3.546 10.060 3.722 15.636 0.002 0.072 0.004 0.142 0.006 0.214 0 0.046 0.002 0.092 0.002 0.136 0.002 0.136 0.006 0.274 0.008 0.41 0 0.004 0 0.006 0 0.010 0.002 0.21 0.002 0.422 0.002 0.634v359.878c0 88.224-71.776 160-160 160h-703.994c-88.224 0-160-71.774-160-160v-560c0-88.224 71.776-160 160-160h378.748c0.094 0 0.188-0.002 0.282-0.002 0.126 0 0.25 0 0.376 0.002h324.594c88.224 0 160 71.776 160 160 0 22.094-17.908 40-40 40zM160 88c-44.112 0-80 35.888-80 80v560c0 44.112 35.888 80 80 80h704c44.112 0 80-35.888 80-80v-250.014l-157.346 187.71c-7.74 9.236-19.206 14.482-31.28 14.3-12.048-0.188-23.372-5.8-30.818-15.272l-308.236-392.052-104.64 135.75c-7.572 9.826-19.276 15.58-31.68 15.58h-0.020c-12.412-0.006-24.118-5.774-31.686-15.612l-88.030-114.438c-13.468-17.51-10.194-42.624 7.316-56.094 17.514-13.47 42.626-10.194 56.094 7.316l56.358 73.266 177.632-230.44h-297.664zM280 744c-66.168 0-120-53.832-120-120s53.832-120 120-120 120 53.832 120 120-53.832 120-120 120zM280 584c-22.056 0-40 17.944-40 40s17.944 40 40 40 40-17.944 40-40-17.944-40-40-40z" />
<glyph unicode="&#xe91c;" glyph-name="purchases-01" d="M984 398h-134v16c0 86.016-69.977 156-156 156s-156-69.984-156-156v-16h-146c-22.094 0-40-17.906-40-40v-268c0-26.563 6.531-51.805 18.828-74h-210.828c-45.609 0-80 31.813-80 74v598h186v-40c0-22.094 17.906-40 40-40s40 17.906 40 40v40h152v-40c0-22.094 17.906-40 40-40s40 17.906 40 40v40h192v-40c0-22.094 17.906-40 40-40s40 17.906 40 40v80c0 22.094-17.906 40-40 40h-232v36c0 86.016-69.977 156-156 156s-156-69.984-156-156v-36h-226c-22.094 0-40-17.906-40-40v-638c0-42.914 17.008-82.375 47.891-111.125 29.695-27.648 69.508-42.875 112.109-42.875h704c88.227 0 160 71.773 160 160v262c0 22.094-17.906 40-40 40zM346 804c0 41.906 34.094 76 76 76s76-34.094 76-76v-36h-152zM618 414c0 41.906 34.094 76 76 76s76-34.094 76-76v-16h-152zM944 96c0-44.109-35.891-80-80-80h-352c-45.609 0-80 31.813-80 74v228h106v-42c0-22.094 17.906-40 40-40s40 17.906 40 40v42h152v-42c0-22.094 17.906-40 40-40s40 17.906 40 40v42h94z" />
<glyph unicode="&#xe91d;" glyph-name="warning" d="M1012.352 228.847c-8.19 20.516-31.458 30.51-51.974 22.32s-30.51-31.458-22.32-51.974c10.412-26.086 6.998-55.87-9.134-79.678-16.14-23.82-41.982-37.482-70.898-37.482h-691.889c-31.542 0-59.552 16.458-74.93 44.030-15.402 27.618-14.678 60.164 1.936 87.066l345.945 560.107c15.752 25.504 43.038 40.73 72.994 40.73s57.24-15.226 72.994-40.73l255.854-414.249c11.608-18.794 36.256-24.624 55.046-13.010 18.792 11.606 24.62 36.252 13.010 55.046l-255.856 414.249c-30.432 49.272-83.16 78.688-141.050 78.688s-110.618-29.418-141.050-78.688l-345.945-560.109c-32.072-51.932-33.468-114.76-3.738-168.066 29.706-53.26 83.832-85.056 144.79-85.056h691.889c55.876 0 105.854 26.466 137.12 72.606 31.032 45.796 37.462 103.442 17.206 154.2zM512.099 160.024c22.090 0 39.996 17.906 39.996 39.996s-17.906 39.996-39.996 39.996h-0.020c-22.090 0-39.986-17.906-39.986-39.996s17.916-39.996 40.006-39.996zM552.077 340.009v293.975c0 22.090-17.906 39.996-39.996 39.996s-39.996-17.906-39.996-39.996v-293.975c0-22.090 17.906-39.996 39.996-39.996s39.996 17.906 39.996 39.996z" />
<glyph unicode="&#xe91e;" glyph-name="zoom-in" d="M754 580h-110v110c0 22.092-17.908 40-40 40s-40-17.908-40-40v-110h-110c-22.092 0-40-17.908-40-40s17.908-40 40-40h110v-110c0-22.092 17.908-40 40-40s40 17.908 40 40v110h110c22.092 0 40 17.908 40 40s-17.908 40-40 40zM604 960c-231.588 0-420-188.412-420-420 0-101.888 36.468-195.418 97.038-268.224l-269.226-267.396c-15.674-15.568-15.76-40.894-0.194-56.568 7.82-7.872 18.1-11.812 28.382-11.812 10.19 0 20.384 3.872 28.186 11.62l269.594 267.76c72.516-59.576 165.266-95.38 266.22-95.38 72.052 0 143.152 18.566 205.608 53.692 19.256 10.828 26.086 35.216 15.256 54.472-10.828 19.254-35.216 26.088-54.472 15.256-50.508-28.406-108.046-43.42-166.392-43.42-187.476 0-340 152.524-340 340s152.524 340 340 340 340-152.524 340-340c0-59.062-15.366-117.218-44.434-168.182-10.946-19.19-4.262-43.618 14.926-54.564 19.19-10.944 43.618-4.262 54.564 14.926 35.944 63.020 54.944 134.882 54.944 207.82 0 231.588-188.412 420-420 420z" />
<glyph unicode="&#xe91f;" glyph-name="zoom-out" d="M754 580h-300c-22.092 0-40-17.908-40-40s17.908-40 40-40h300c22.092 0 40 17.908 40 40s-17.908 40-40 40zM604 960c-231.588 0-420-188.412-420-420 0-101.888 36.468-195.418 97.038-268.224l-269.226-267.396c-15.674-15.568-15.76-40.894-0.194-56.568 7.82-7.872 18.1-11.812 28.382-11.812 10.19 0 20.384 3.872 28.186 11.62l269.594 267.76c72.516-59.576 165.266-95.38 266.22-95.38 72.052 0 143.152 18.566 205.608 53.692 19.256 10.828 26.086 35.216 15.256 54.472-10.828 19.254-35.216 26.088-54.472 15.256-50.508-28.406-108.046-43.42-166.392-43.42-187.476 0-340 152.524-340 340s152.524 340 340 340 340-152.524 340-340c0-59.062-15.366-117.218-44.434-168.182-10.946-19.19-4.262-43.618 14.926-54.564 19.192-10.944 43.618-4.262 54.564 14.926 35.944 63.020 54.944 134.882 54.944 207.82 0 231.588-188.412 420-420 420z" />
<glyph unicode="&#xe920;" glyph-name="agenda" d="M240 176h542c88.227 0 160 71.773 160 160v464c0 88.227-71.773 160-160 160h-542c-88.227 0-160-71.773-160-160v-704c0-88.227 71.773-160 160-160h542c88.227 0 160 71.773 160 160 0 22.094-17.906 40-40 40s-40-17.906-40-40c0-44.109-35.891-80-80-80h-542c-44.109 0-80 35.891-80 80s35.891 80 80 80zM160 800c0 44.109 35.891 80 80 80h542c44.109 0 80-35.891 80-80v-464c0-44.109-35.891-80-80-80h-542c-29.125 0-56.453-7.82-80-21.469zM364 391.906c22.094 0 40 17.906 40 40v20c0 6.758 2.82 13.125 7.734 17.484 18.844 16.703 51.539 36.609 100.266 36.609s81.422-19.906 100.266-36.609c4.914-4.359 7.734-10.727 7.734-17.484v-20c0-22.094 17.906-40 40-40s40 17.906 40 40v20c0 29.633-12.641 57.828-34.672 77.359-12.555 11.117-29.016 23.156-49.547 33.273 11.523 18.422 18.219 40.172 18.219 63.461 0 66.172-53.828 120-120 120s-120-53.828-120-120c0-22.664 6.32-43.883 17.289-61.984-21.969-10.406-39.445-23.078-52.609-34.75-22.039-19.531-34.68-47.727-34.68-77.359v-20c0-22.094 17.906-40 40-40zM514 666c22.055 0 40-17.945 40-40s-17.945-40-40-40-40 17.945-40 40 17.945 40 40 40z" />
<glyph unicode="&#xe921;" glyph-name="ban" d="M874 810c-92.093 89.514-217.955 144.708-356.708 144.708-282.77 0-512-229.23-512-512 0-138.754 55.195-264.616 144.826-356.83l-0.117 0.121c92.684-92.656 220.711-149.962 362.123-149.962 97.861 0 189.313 27.445 267.077 75.057l-2.24-1.275c11.638 7.134 19.284 19.784 19.284 34.22 0 22.094-17.91 40.004-40.004 40.004-7.658 0-14.813-2.152-20.894-5.883l0.174 0.099c-63.639-39.1-140.716-62.26-223.202-62.26-0.112 0-0.224 0-0.336 0h0.018c-238.2 0-432 193.8-432 432s193.8 432 432 432 432-193.8 432-432c-0.087-89.451-27.452-172.494-74.222-241.279l0.962 1.499c-4.225-6.244-6.745-13.943-6.745-22.23 0-22.094 17.911-40.005 40.005-40.005 13.807 0 25.98 6.995 33.17 17.634l0.090 0.141c54.31 79.912 86.71 178.525 86.71 284.706 0 141.227-57.319 269.067-149.962 361.525l-0.008 0.008zM183.419 175.963l602.922 602.922c15.621 15.621 40.948 15.621 56.569 0s15.621-40.948 0-56.569l-602.922-602.922c-15.621-15.621-40.948-15.621-56.569 0s-15.621 40.948 0 56.569z" />
<glyph unicode="&#xe922;" d="M992 799.978h-448c-17.664 0-32-14.336-32-32v-640c0-17.664 14.336-32 32-32h448c17.664 0 32 14.336 32 32v640c0 17.664-14.336 32-32 32z" />
<glyph unicode="&#xe923;" d="M864 223.978h-320c-17.664 0-32 14.336-32 32s14.336 32 32 32h320c17.664 0 32-14.336 32-32s-14.336-32-32-32z" />
<glyph unicode="&#xe924;" d="M704 671.978c-88.384 0-160-71.616-160-160s71.616-160 160-160 160 71.616 160 160h-160v160z" />
<glyph unicode="&#xe925;" d="M768 735.978v-160h160c0 88.384-71.616 160-160 160z" />
<glyph unicode="&#xe926;" d="M564.416 920.618c-7.296 6.080-17.088 8.704-26.304 6.784l-512-96c-15.168-2.816-26.112-16-26.112-31.424v-704c0-15.36 10.944-28.608 26.112-31.424l512-96c1.92-0.384 3.904-0.576 5.888-0.576 7.424 0 14.656 2.56 20.416 7.36 7.36 6.080 11.584 15.168 11.584 24.64v896c0 9.536-4.224 18.56-11.584 24.64z" />
<glyph unicode="&#xe927;" d="M224 223.978c-17.664 0-32 14.336-32 32v320c0 17.664 14.336 32 32 32h96c70.592 0 128-57.408 128-128s-57.408-128-128-128h-64v-96c0-17.664-14.336-32-32-32zM256 415.978h64c35.264 0 64 28.736 64 64s-28.736 64-64 64h-64v-128z" />
<glyph unicode="&#xe928;" glyph-name="feedback" d="M983.828 255.946c22.086 0 39.992 17.906 39.992 39.992v278.539c0 54.805-27.555 105.172-73.703 134.726l-353.281 226.211c-0.148 0.102-0.297 0.195-0.453 0.289-52.102 32.398-116.844 32.398-168.945 0-0.141-0.094-0.289-0.18-0.43-0.273l-353.234-225.961c-46.195-29.547-73.773-79.922-73.773-134.758v-478.742c0-88.203 71.766-159.969 159.976-159.969h703.874c88.211 0 159.969 71.766 159.969 159.969 0 22.094-17.906 39.992-39.992 39.992s-39.992-17.898-39.992-39.992c0-44.102-35.883-79.984-79.984-79.984h-703.874c-44.109 0-79.992 35.883-79.992 79.984v426.656l347.453-216.047c26.055-16.203 55.266-24.305 84.476-24.305s58.422 8.102 84.476 24.305l347.445 216.047v-226.687c0-22.086 17.906-39.992 39.992-39.992zM554.148 374.501c-26.055-16.195-58.422-16.195-84.476 0l-380.836 236.812c6.352 12.344 15.891 23.008 28.039 30.781l353 225.804c25.945 16.031 58.117 16.031 84.062 0.008l353.047-226.070c12.078-7.727 21.57-18.328 27.914-30.578zM646.242 672.086c15.578-15.648 15.516-40.977-0.133-56.555-7.805-7.766-18.016-11.648-28.211-11.648-10.273 0-20.531 3.93-28.352 11.781l-39.43 39.617v-155.383c0-22.086-17.906-39.992-39.992-39.992s-39.992 17.906-39.992 39.992v155.805l-39.852-40.039c-15.586-15.656-40.906-15.711-56.562-0.133s-15.711 40.906-0.133 56.555l79.937 80.312c15.047 15.125 35.078 23.453 56.391 23.453s41.344-8.328 56.391-23.445z" />
<glyph unicode="&#xe929;" glyph-name="salary" d="M706.992 458.547c-10.594 4.289-21.313 8.188-32.109 11.75 66.203 49.656 109.117 128.766 109.117 217.703 0 149.984-122.023 272-272 272-149.984 0-272-122.016-272-272 0-89.016 42.984-168.188 109.289-217.836-60.742-19.992-117.75-51.094-167.633-92.125-91.461-75.234-155.055-180.172-179.063-295.484-7.523-36.133 1.492-73.242 24.727-101.82 23.125-28.43 57.406-44.734 94.063-44.734h558.617c22.086 0 40 17.906 40 40s-17.914 40-40 40h-558.617c-17.078 0-27.375 9.531-32 15.211-7.977 9.813-11.063 22.578-8.469 35.039 41.539 199.531 217.625 345.234 420.906 349.961 3.375-0.125 6.766-0.211 10.18-0.211 3.43 0 6.836 0.086 10.242 0.211 53.477-1.211 105.484-11.898 154.758-31.828 20.484-8.273 43.797 1.609 52.078 22.086 8.281 20.484-1.602 43.797-22.086 52.078zM320 688c0 105.867 86.125 192 192 192 105.867 0 192-86.133 192-192 0-102.789-81.195-186.961-182.813-191.773-3.063 0.047-6.125 0.102-9.188 0.102-3.125 0-6.242-0.039-9.359-0.102-101.539 4.898-182.641 89.039-182.641 191.773zM1024 118.32v-9.82c0-56.391-41.016-101.648-96.039-109.336v-23.164c0-22.094-17.914-40-40-40-22.094 0-40 17.906-40 40v22.094c-54.148 1.867-96.047 44.188-96.047 97.906 0 22.094 17.914 40 40 40 22.094 0 40-17.906 40-40 0-11.82 9.953-18 19.781-18h59.57c18.664 0 32.734 13.117 32.734 30.5v9.82c0 17.766-14.375 31.68-32.734 31.68h-36.648c-62.047 0-112.516 51.141-112.516 114v14.586c0 30.234 11.797 58.422 33.219 79.383 14.711 14.391 32.844 24.258 52.641 28.938v27.094c0 22.094 17.906 40 40 40 22.086 0 40-17.906 40-40v-25.719c46.633-8.578 82.039-48.578 82.039-96.516 0-22.086-17.914-40-40-40-22.094 0-40 17.914-40 40 0 11.414-10.539 18.234-20.727 18.234h-34.656c-18.539 0-32.516-13.508-32.516-31.414v-14.586c0-18.43 14.891-34 32.516-34h36.648c30.031 0 58.234-11.43 79.422-32.18 21.477-21.039 33.313-49.273 33.313-79.5z" />
<glyph unicode="&#xe92a;" glyph-name="tree-structure" d="M564.102 452c2.125-64.32 55.070-116 119.898-116h220c66.172 0 120 53.828 120 120v80c0 66.172-53.828 120-120 120h-220c-66.172 0-120-53.828-120-120v-4h-296v108h72c66.172 0 120 53.828 120 120v80c0 66.172-53.828 120-120 120h-220c-66.172 0-120-53.828-120-120v-80c0-66.172 53.828-120 120-120h68v-428c0-88.227 71.773-160 160-160h216.102c2.125-64.32 55.070-116 119.898-116h220c22.094 0 40 17.906 40 40s-17.906 40-40 40h-220c-22.055 0-40 17.945-40 40v80c0 22.055 17.945 40 40 40h220c22.055 0 40-17.945 40-40 0-22.094 17.906-40 40-40s40 17.906 40 40c0 66.172-53.828 120-120 120h-220c-66.172 0-120-53.828-120-120v-4h-216c-44.109 0-80 35.891-80 80v240zM644 536c0 22.055 17.945 40 40 40h220c22.055 0 40-17.945 40-40v-80c0-22.055-17.945-40-40-40h-220c-22.055 0-40 17.945-40 40zM80 760v80c0 22.055 17.945 40 40 40h220c22.055 0 40-17.945 40-40v-80c0-22.055-17.945-40-40-40h-220c-22.055 0-40 17.945-40 40z" />
<glyph unicode="&#xe92b;" glyph-name="management" d="M763.383 417.813c-17.57 13.383-42.672 9.992-56.055-7.586-22.141-29.070-48.289-53.609-73.578-77.336-38.969-36.57-76.242-71.57-90.969-116.891h-183.406c-14.727 45.32-52 80.32-90.961 116.891-63.133 59.242-128.406 120.508-128.406 240.578 0 81.344 32.18 158.094 90.609 216.094 58.805 58.375 136.461 90.437 218.891 90.437 0.781 0 1.57 0 2.352-0.008h0.305c21.953 0 39.828 17.711 39.992 39.703 0.164 22.094-17.617 40.133-39.703 40.297-104.68 0.758-203.586-39.594-278.203-113.656-73.672-73.133-114.25-170.039-114.25-272.875 0-154.703 88.812-238.047 153.664-298.906 44.852-42.094 72.336-69.469 72.336-100.555v-118c0-66.172 53.836-120 120-120h90c66.172 0 120 53.828 120 120v114.945c0.078 1.008 0.156 2.023 0.156 3.055 0 31.086 27.484 58.461 72.336 100.555 26.383 24.758 56.297 52.828 82.469 87.195 13.391 17.578 9.992 42.672-7.578 56.062zM496 16h-90c-22.055 0-40 17.945-40 40v80h170v-80c0-22.055-17.937-40-40-40zM403.891 717.641c-63.328-19.719-105.883-77.445-105.883-143.641 0-22.094-17.906-40-40-40s-40 17.906-40 40c0 101.414 65.148 189.836 162.109 220.023 21.094 6.562 43.516-5.211 50.078-26.305s-5.211-43.516-26.305-50.078zM947.39 700.25l-38.492 27.742c0.078 2 0.117 4.008 0.117 6.008 0 2.422-0.078 4.852-0.187 7.273-0.039 0.797-0.086 1.586-0.133 2.383-0.047 0.758-0.070 1.516-0.125 2.266l39.711 30.336c15.648 11.945 20.273 33.5 10.906 50.82l-18 33.273c-9.414 17.414-30.148 25.312-48.758 18.594l-47.289-17.062c-5.945 4.477-12.211 8.477-18.703 12.078-0.594 0.32-1.172 0.656-1.766 0.977-1.617 0.867-3.25 1.695-4.891 2.508-0.883 0.437-1.758 0.867-2.648 1.289-0.75 0.352-1.492 0.75-2.25 1.094l-8.508 47.258c-3.43 19.055-20.008 32.914-39.367 32.914h-38c-19.945 0-36.844-14.695-39.609-34.453l-6.406-45.758c-11.781-5.336-22.852-12.078-33.023-20.102l-46.414 14.492c-18.695 5.836-38.867-2.719-47.664-20.219l-17.625-35.070c-8.992-17.883-3.375-39.664 13.141-50.969l37.805-25.883c-0.125-2.664-0.203-5.344-0.203-8.039 0-2.445 0.078-4.891 0.187-7.336 0.039-0.812 0.094-1.625 0.141-2.437 0.055-0.852 0.086-1.703 0.148-2.555l-38.32-30.359c-15.703-12.445-19.781-34.586-9.539-51.805l18.75-31.523c9.797-16.461 29.891-23.672 47.914-17.187l43.945 15.797c9.586-7.289 19.945-13.469 30.898-18.422l8.508-47.258c3.43-19.047 20.008-32.914 39.367-32.914h36c19.656 0 36.391 14.281 39.5 33.68l7.367 46.023c13.375 5.922 25.852 13.656 37.141 23.031l45.469-13.453c18.562-5.492 38.391 3.102 47.086 20.391l16.172 32.164c8.82 17.562 3.586 38.93-12.352 50.414zM669.141 738.43c0.008 0.187 0.031 0.367 0.039 0.555 0.086 1.328 0.195 2.656 0.352 3.984 0.008 0.117 0.023 0.234 0.039 0.352 0.164 1.398 0.367 2.797 0.609 4.195 0.008 0.078 0.023 0.164 0.039 0.242 0.242 1.383 0.523 2.766 0.836 4.141 3.344 14.578 10.68 27.648 20.797 37.992 0.273 0.281 0.547 0.57 0.828 0.844 0.797 0.797 1.609 1.57 2.437 2.328 0.187 0.172 0.383 0.344 0.578 0.508 1.664 1.492 3.383 2.922 5.172 4.266 0.148 0.117 0.289 0.227 0.437 0.336 0.984 0.734 1.984 1.453 3.008 2.141v0.008c1.977 1.328 4.016 2.57 6.109 3.727 0.242 0.133 0.484 0.273 0.727 0.406 1 0.539 2.016 1.062 3.039 1.555 0.336 0.164 0.68 0.312 1.016 0.477 1.625 0.758 3.273 1.453 4.945 2.102 0.687 0.273 1.375 0.539 2.070 0.781 0.797 0.281 1.594 0.555 2.406 0.812 1.109 0.359 2.234 0.687 3.359 0.992 6.703 1.828 13.75 2.82 21.023 2.82 7.422 0 14.594-1.031 21.414-2.93 1.133-0.312 2.25-0.648 3.367-1.016 0.633-0.203 1.266-0.414 1.898-0.641 0.992-0.352 1.969-0.727 2.945-1.117 0.852-0.344 1.695-0.695 2.523-1.062 1.008-0.437 2-0.898 2.984-1.375 0.687-0.336 1.359-0.687 2.031-1.039 0.789-0.414 1.562-0.852 2.344-1.297 0.617-0.352 1.242-0.695 1.852-1.062 1.219-0.742 2.422-1.516 3.602-2.32 0.555-0.383 1.094-0.773 1.633-1.164 0.828-0.594 1.641-1.203 2.445-1.828 0.484-0.383 0.977-0.75 1.453-1.141 1.18-0.969 2.336-1.961 3.469-3 0.336-0.297 0.648-0.617 0.977-0.93 0.914-0.859 1.805-1.742 2.672-2.656 9.703-10.078 16.789-22.68 20.164-36.711 0.273-1.148 0.531-2.305 0.75-3.461 0.094-0.445 0.164-0.898 0.25-1.352 0.187-1.086 0.352-2.164 0.5-3.25 0.062-0.469 0.125-0.937 0.18-1.414 0.133-1.117 0.227-2.234 0.312-3.359 0.031-0.422 0.070-0.844 0.094-1.273 0.086-1.531 0.141-3.062 0.141-4.602 0-2.758-0.141-5.531-0.422-8.281-0.016-0.117-0.039-0.234-0.047-0.352-0.133-1.234-0.289-2.469-0.484-3.695-0.070-0.461-0.164-0.922-0.242-1.383-0.148-0.859-0.297-1.711-0.469-2.562-2.859-13.766-9.273-26.234-18.227-36.43-1.156-1.32-2.344-2.609-3.57-3.836-0.266-0.273-0.555-0.531-0.828-0.797-0.961-0.937-1.953-1.844-2.953-2.727-0.539-0.469-1.062-0.937-1.609-1.391-1.109-0.93-2.25-1.828-3.406-2.695-0.711-0.531-1.445-1.039-2.172-1.547-0.648-0.445-1.297-0.883-1.945-1.312-1.18-0.766-2.383-1.508-3.602-2.211-0.75-0.437-1.5-0.875-2.266-1.281-0.797-0.43-1.609-0.844-2.422-1.25-0.891-0.43-1.781-0.852-2.687-1.25-0.922-0.422-1.859-0.82-2.805-1.195-1.156-0.469-2.328-0.914-3.508-1.328-0.562-0.195-1.133-0.391-1.703-0.578-1.633-0.523-3.289-1.016-4.969-1.437-6.289-1.602-12.875-2.453-19.656-2.453-7.453 0-14.648 1.039-21.492 2.953-1.109 0.305-2.203 0.633-3.289 0.992-0.664 0.219-1.328 0.437-1.992 0.672-0.945 0.344-1.883 0.703-2.82 1.078-1.047 0.422-2.086 0.859-3.109 1.32-0.812 0.367-1.625 0.734-2.43 1.125-0.766 0.375-1.523 0.773-2.273 1.172-0.672 0.352-1.328 0.727-1.984 1.094-1.109 0.633-2.203 1.289-3.273 1.969-0.773 0.484-1.547 0.977-2.297 1.492-0.687 0.469-1.367 0.953-2.039 1.445-0.664 0.484-1.32 0.984-1.977 1.492-0.602 0.469-1.219 0.937-1.812 1.422-1.094 0.906-2.164 1.836-3.211 2.797-0.516 0.469-1.008 0.961-1.508 1.437-0.727 0.703-1.43 1.414-2.133 2.141-9.734 10.125-16.828 22.789-20.18 36.898-0.258 1.078-0.5 2.156-0.711 3.25-0.094 0.477-0.172 0.953-0.258 1.43-0.18 1.055-0.344 2.117-0.484 3.18-0.062 0.477-0.133 0.953-0.187 1.437-0.125 1.109-0.219 2.219-0.305 3.336-0.031 0.422-0.070 0.844-0.102 1.273-0.086 1.523-0.133 3.062-0.133 4.594-0.008 1.477 0.039 2.953 0.125 4.43zM330 486c22.094 0 40-17.906 40-40s-17.906-40-40-40c-22.086 0-40 17.906-40 40s17.914 40 40 40z" />
<glyph unicode="&#xe92c;" glyph-name="money-transfer" d="M474 766c0 22.094 17.906 40 40 40s40-17.906 40-40-17.906-40-40-40-40 17.906-40 40zM944 296v226.727l-347.508-216.086c-26.055-16.203-55.281-24.305-84.492-24.305-29.219 0-58.43 8.102-84.492 24.305l-347.508 216.086v-426.727c0-44.109 35.891-80 80-80h704c44.109 0 80 35.891 80 80 0 22.094 17.906 40 40 40s40-17.906 40-40c0-88.227-71.773-160-160-160h-704c-88.227 0-160 71.773-160 160v478.82c0 54.852 27.578 105.234 73.781 134.789l62.219 39.797v50.594c0 88.227 71.773 160 160 160h432c88.227 0 160-71.773 160-160v-50.789l62.281-39.875c46.164-29.563 73.719-79.93 73.719-134.742v-278.594c0-22.094-17.906-40-40-40s-40 17.906-40 40zM888 654.219v-72.109l47.055 29.266c-6.344 12.258-15.836 22.852-27.914 30.586zM216 800v-267.633l84.469-52.523c19.844 92.367 107.25 162.156 211.773 162.156 104.422 0 191.773-69.656 211.719-161.891l84.039 52.258v267.633c0 44.109-35.891 80-80 80h-432c-44.109 0-80-35.891-80-80zM88.852 611.43l47.148-29.313v72.32l-19.109-12.227c-12.148-7.766-21.688-18.438-28.039-30.781zM648.836 433.391c-0.359 2.156-0.594 4.352-0.594 6.609 0 67.273-61.008 122-136 122-74.984 0-136-54.727-136-122 0-2.352-0.242-4.641-0.633-6.883l94.148-58.539c26.055-16.211 58.43-16.211 84.484 0z" />
<glyph unicode="&#xe92d;" glyph-name="cloud" d="M584 76h-408c-47.734 0-92.234 18.625-125.32 52.453-32.68 33.414-50.68 78-50.68 125.547 0 84.641 59.953 155.672 140 173.625v36.375c0 98.148 79.852 178 178 178 28.398 0 56.063-6.805 80.844-19.453 13.875 34.039 34.648 65 61.547 91.406 42.352 41.563 95.695 67.703 154.266 75.594 21.891 2.953 42.039-12.406 44.984-34.305 2.953-21.891-12.406-42.031-34.297-44.977-83.82-11.297-151.398-77.547-164.344-161.125-2.375-15.336-13.406-27.906-28.297-32.266s-30.953 0.289-41.219 11.914c-18.633 21.109-45.414 33.211-73.484 33.211-54.039 0-98-43.961-98-98v-72c0-22.094-17.906-40-40-40h-0.305c-54.977 0-99.695-43.961-99.695-98 0-54.953 42.172-98 96-98h408c22.094 0 40-17.906 40-40s-17.906-40-40-40zM944-24v254.852c46.563 16.508 80 61 80 113.148v218c0 66.172-53.828 120-120 120h-160c-66.172 0-120-53.828-120-120v-218c0-52.148 33.438-96.633 80-113.148v-254.852c0-22.094 17.906-40 40-40s40 17.906 40 40v288c0 22.094-17.906 40-40 40-22.055 0-40 17.945-40 40v218c0 22.055 17.945 40 40 40h160c22.055 0 40-17.945 40-40v-218c0-22.055-17.945-40-40-40-22.094 0-40-17.906-40-40v-288c0-22.094 17.906-40 40-40s40 17.906 40 40zM944 840c0 66.172-53.828 120-120 120s-120-53.828-120-120 53.828-120 120-120 120 53.828 120 120zM864 840c0-22.055-17.945-40-40-40s-40 17.945-40 40 17.945 40 40 40 40-17.945 40-40z" />
<glyph unicode="&#xe92e;" glyph-name="control" d="M863.999 891.999h-703.999c-88.226 0-160-71.773-160-160v-431.999c0-88.226 71.773-160 160-160h194c22.094 0 40 17.906 40 40s-17.906 40-40 40h-194c-44.109 0-80 35.891-80 80v299.757h863.999v-174c0-22.094 17.906-40 40-40s40 17.906 40 40v306.242c0 88.226-71.773 160-160 160zM80 679.757v52.242c0 44.109 35.891 80 80 80h703.999c44.109 0 80-35.891 80-80v-52.242zM1007.499 233.352c-13.391 16.844-44.75 56.297-88.383 91.117-55.945 44.648-113.515 67.289-171.117 67.289s-115.172-22.641-171.117-67.289c-43.625-34.82-74.992-74.266-88.375-91.109-3-3.773-7.828-10.602-9.234-12.609-9.695-13.789-9.695-32.187 0-45.984 1.406-2.008 6.234-8.836 9.227-12.609 13.391-16.844 44.758-56.289 88.39-91.109 55.937-44.648 113.515-67.289 171.109-67.289 57.601 0 115.172 22.641 171.117 67.289 43.633 34.828 74.992 74.273 88.383 91.109 3 3.773 7.828 10.602 9.234 12.609 9.695 13.797 9.687 32.195-0.008 45.992-1.406 2-6.234 8.828-9.227 12.594zM747.999 83.758c-59.406 0-121.687 38.336-185.281 114 63.601 75.664 125.875 114 185.281 114s121.687-38.336 185.281-114c-63.601-75.672-125.875-114-185.281-114zM825.999 197.758c0-41.977-34.023-76-76-76s-76 34.023-76 76c0 41.969 34.023 76 76 76s76-34.031 76-76z" />
<glyph unicode="&#xe92f;" glyph-name="audit" d="M877.781 254c22.086 0 40 17.906 40 40v406c0 88.227-71.781 160-160 160h-126v60c0 22.094-17.914 40-40 40h-160c-22.094 0-40-17.906-40-40v-60h-125.781c-88.227 0-160-71.773-160-160v-604c0-88.227 71.773-160 160-160h491.781c88.219 0 160 71.773 160 160 0 22.094-17.914 40-40 40-22.094 0-40-17.906-40-40 0-44.109-35.891-80-80-80h-491.781c-44.109 0-80 35.891-80 80v604c0 44.109 35.891 80 80 80h125.781v-20c0-66.172 53.828-120 120-120 66.164 0 120 53.828 120 120v20h126c44.109 0 80-35.891 80-80v-406c0-22.094 17.906-40 40-40zM551.781 760c0-22.055-17.945-40-40-40-22.063 0-40 17.945-40 40v120h80zM726.586 504.75c18.148-12.594 22.648-37.523 10.055-55.672l-177.969-256.406c-0.531-0.766-1.094-1.516-1.68-2.25-17.969-22.367-44.695-36.289-73.32-38.195-2.266-0.148-4.539-0.227-6.797-0.227-26.273 0-51.82 10.133-70.953 28.352-0.188 0.18-0.375 0.352-0.555 0.531l-105.719 104.563c-15.703 15.539-15.844 40.867-0.313 56.57 15.539 15.711 40.867 15.844 56.57 0.313l105.383-104.227c6.266-5.828 13.352-6.297 17.055-6.047 3.586 0.234 10.242 1.563 15.602 7.664l176.969 254.977c12.602 18.148 37.523 22.656 55.672 10.055z" />
<glyph unicode="&#xe930;" glyph-name="service" d="M944 176v41.766c0 50.859-41.383 92.234-92.25 92.234h-383.75c-22.055 0-40-17.945-40-40 0-9.477 3.328-18.188 8.867-25.055l8.117-7.414c0.242-0.227 0.453-0.477 0.695-0.711 6.383-4.305 14.063-6.82 22.32-6.82h200c22.094 0 40-17.906 40-40s-17.906-40-40-40h-200c-34.773 0-66.125 14.883-88.063 38.594l-230.883 210.977c-0.352 0.32-0.703 0.648-1.039 0.977-7.625 7.484-17.734 11.539-28.391 11.453-10.688-0.102-20.695-4.359-28.172-11.984-7.484-7.625-11.555-17.711-11.453-28.391 0.094-10.523 4.227-20.383 11.633-27.828l203.539-188.453c0.219-0.203 0.438-0.406 0.648-0.617 92.406-89.461 214.125-138.727 342.734-138.727h345.445c22.094 0 40-17.906 40-40s-17.906-40-40-40h-345.445c-74 0-146.297 14.078-214.891 41.844-68.445 27.703-130.070 67.773-183.164 119.094l-203.711 188.609c-0.281 0.266-0.563 0.531-0.844 0.805-22.875 22.453-35.641 52.469-35.937 84.523-0.305 32.047 11.898 62.297 34.344 85.172 22.453 22.883 52.469 35.648 84.523 35.945 31.742 0.297 61.805-11.695 84.617-33.797l154.227-140.93c18.383 42.734 60.891 72.734 110.281 72.734h383.75c94.977 0 172.25-77.266 172.25-172.234v-41.766c0-22.094-17.906-40-40-40s-40 17.906-40 40zM330.922 811.187l20.008 36.508c9.047 16.508 28.391 24.477 46.438 19.125l51.602-15.281c11.578 9.375 24.297 17.141 37.891 23.141l7.117 50.859c2.766 19.758 19.664 34.461 39.609 34.461h40.828c19.359 0 35.938-13.867 39.367-32.922l9.422-52.383c12.148-5.367 23.633-12.164 34.219-20.242l47.914 18.313c17.859 6.828 38.055 0.055 48.195-16.148l22.383-35.789c10.875-17.391 6.836-40.195-9.359-52.789l-43.188-33.578c0.102-1.172 0.148-2.344 0.227-3.516 0.063-0.984 0.148-1.977 0.195-2.969 0.125-2.656 0.195-5.32 0.195-7.977 0-2.734-0.063-5.469-0.195-8.203l41.875-30.734c15.43-11.32 20.672-31.992 12.516-49.297l-16.305-34.586c-8.414-17.867-28.609-26.906-47.539-21.305l-50.359 14.922c-12.648-10.719-26.727-19.453-41.898-26l-8.172-51.117c-3.102-19.406-19.844-33.688-39.5-33.688h-38.672c-19.359 0-35.945 13.867-39.367 32.922l-9.422 52.383c-12.578 5.555-24.438 12.633-35.32 21.086l-48.719-17.539c-18.375-6.617-38.844 1.008-48.414 18.031l-19.063 33.898c-9.578 17.023-5.461 38.461 9.734 50.734l41.648 33.617c-0.109 1.219-0.164 2.438-0.242 3.664-0.070 1.047-0.164 2.094-0.211 3.156-0.125 2.68-0.203 5.367-0.203 8.047 0 2.547 0.078 5.094 0.195 7.641 0.023 0.563 0.039 1.125 0.070 1.688 0.016 0.211 0.016 0.414 0.031 0.625l-42.805 28.836c-17.148 11.563-22.664 34.273-12.727 52.406zM531.289 634.227c7.578-2.109 15.547-3.258 23.781-3.258 7.586 0 14.938 0.961 21.969 2.75 0.281 0.070 0.555 0.156 0.828 0.227 1.102 0.289 2.195 0.602 3.281 0.938 0.227 0.070 0.445 0.141 0.672 0.211 15.078 4.766 28.422 13.461 38.852 24.875 0.18 0.203 0.359 0.398 0.539 0.602 10.297 11.484 17.68 25.648 20.922 41.32 0.188 0.914 0.344 1.844 0.508 2.766 0.094 0.539 0.203 1.078 0.289 1.625 0.203 1.32 0.367 2.648 0.516 3.977 0.023 0.172 0.047 0.352 0.063 0.523 0.32 3.063 0.477 6.141 0.477 9.219 0 1.711-0.055 3.414-0.156 5.117-0.023 0.484-0.078 0.961-0.109 1.445-0.086 1.234-0.203 2.469-0.336 3.695-0.063 0.539-0.141 1.086-0.211 1.625-0.156 1.172-0.344 2.344-0.539 3.516-0.094 0.539-0.188 1.078-0.297 1.617-0.234 1.219-0.5 2.43-0.789 3.633-3.75 15.734-11.672 29.859-22.547 41.133-0.898 0.938-1.82 1.844-2.758 2.742-0.414 0.398-0.828 0.805-1.25 1.195-1.227 1.125-2.492 2.203-3.773 3.25-0.57 0.469-1.148 0.914-1.734 1.367-0.844 0.656-1.695 1.297-2.563 1.922-0.641 0.461-1.273 0.93-1.922 1.367-1.289 0.883-2.602 1.734-3.938 2.547-0.703 0.43-1.43 0.828-2.148 1.234-0.828 0.477-1.672 0.945-2.516 1.391-0.766 0.398-1.523 0.797-2.305 1.18-1.063 0.523-2.148 1.016-3.242 1.5-0.953 0.422-1.922 0.828-2.898 1.219-1.070 0.422-2.141 0.844-3.227 1.227-0.711 0.25-1.414 0.484-2.125 0.719-1.234 0.398-2.484 0.781-3.734 1.125-7.578 2.109-15.555 3.266-23.797 3.266-42.18 0-77.57-29.578-86.641-69.094-0.352-1.539-0.664-3.086-0.93-4.641-0.016-0.086-0.031-0.172-0.047-0.258-0.266-1.555-0.484-3.109-0.672-4.672-0.016-0.133-0.031-0.258-0.047-0.383-0.172-1.477-0.289-2.953-0.383-4.43-0.016-0.211-0.039-0.422-0.047-0.625-0.094-1.648-0.148-3.297-0.148-4.938 0-1.703 0.063-3.406 0.156-5.109 0.031-0.469 0.078-0.93 0.109-1.398 0.094-1.25 0.203-2.5 0.344-3.75 0.063-0.516 0.133-1.031 0.203-1.547 0.156-1.211 0.344-2.414 0.555-3.617 0.086-0.5 0.172-1.008 0.273-1.508 0.242-1.266 0.516-2.516 0.813-3.766 3.742-15.656 11.617-29.711 22.414-40.953 0.781-0.813 1.57-1.609 2.375-2.391 0.555-0.531 1.102-1.070 1.664-1.586 1.172-1.070 2.367-2.117 3.586-3.125 0.648-0.531 1.328-1.047 1.992-1.563 0.734-0.578 1.477-1.141 2.234-1.688 0.734-0.539 1.469-1.070 2.227-1.586 0.906-0.617 1.828-1.211 2.758-1.797 1.109-0.695 2.234-1.367 3.375-2.016 0.766-0.445 1.539-0.875 2.32-1.289 0.813-0.43 1.625-0.852 2.453-1.258 0.953-0.477 1.93-0.914 2.906-1.352 1.039-0.469 2.094-0.914 3.156-1.344 1.094-0.438 2.195-0.867 3.313-1.258 0.703-0.25 1.414-0.492 2.125-0.727 1.25-0.406 2.508-0.789 3.781-1.141z" />
<glyph unicode="&#xe931;" glyph-name="job" d="M298 492c0-22.094-17.906-40-40-40s-40 17.906-40 40v40c0 22.094 17.906 40 40 40s40-17.906 40-40zM418 572c-22.094 0-40-17.906-40-40v-40c0-22.094 17.906-40 40-40s40 17.906 40 40v40c0 22.094-17.906 40-40 40zM298 352c0 22.094-17.906 40-40 40s-40-17.906-40-40v-40c0-22.094 17.906-40 40-40s40 17.906 40 40zM458 312v40c0 22.094-17.906 40-40 40s-40-17.906-40-40v-40c0-22.094 17.906-40 40-40s40 17.906 40 40zM258 212c-22.094 0-40-17.906-40-40v-40c0-22.094 17.906-40 40-40s40 17.906 40 40v40c0 22.094-17.906 40-40 40zM298 712c0 22.094-17.906 40-40 40s-40-17.906-40-40v-40c0-22.094 17.906-40 40-40s40 17.906 40 40zM458 712c0 22.094-17.906 40-40 40s-40-17.906-40-40v-40c0-22.094 17.906-40 40-40s40 17.906 40 40zM538 712v-40c0-22.094 17.906-40 40-40s40 17.906 40 40v40c0 22.094-17.906 40-40 40s-40-17.906-40-40zM945.617-34.242c-15.391-18.914-38.102-29.758-62.313-29.758h-390.609c-24.344 0-47.125 10.836-62.5 29.727-15.469 19.008-21.477 43.703-16.484 67.75 12.922 62.25 47.148 118.891 96.367 159.492 18.641 15.375 39.125 28.172 60.844 38.172-24.195 27.492-38.922 63.516-38.922 102.93 0 86.023 69.977 156 156 156s156-69.977 156-156c0-39.414-14.727-75.438-38.922-102.93 21.719-10 42.203-22.789 60.844-38.172 48.234-39.789 82.063-94.984 95.563-155.758 0.313-1.055 0.578-2.117 0.805-3.203 5.016-24.188-1.063-49.063-16.672-68.25zM612 334.070c0-41.906 34.094-76 76-76s76 34.094 76 76-34.094 76-76 76-76-34.094-76-76zM883.977 17.133c-0.008 0.023-0.016 0.055-0.016 0.078-19.211 92.508-101.625 159.656-195.961 159.656s-176.758-67.148-195.961-159.656c-0.18-0.898 0.438-1.188 0.438-1.195 0.016 0 0.086-0.016 0.219-0.016h390.609c0.023 0.023 0.563 0.43 0.672 1.133zM300 16h-160v764h40c22.094 0 40 17.906 40 40v60h398v-60c0-22.094 17.906-40 40-40h40v-176c0-22.094 17.906-40 40-40s40 17.906 40 40v216c0 22.094-17.906 40-40 40h-40v60c0 22.094-17.906 40-40 40h-478c-22.094 0-40-17.906-40-40v-60h-40c-22.094 0-40-17.906-40-40v-844c0-22.094 17.906-40 40-40h200c22.094 0 40 17.906 40 40s-17.906 40-40 40z" />
<glyph unicode="&#xe932;" glyph-name="stopwatch" d="M962 387c0-88.93-26.195-175.109-75.75-249.234-7.711-11.531-20.375-17.773-33.289-17.773-7.641 0-15.367 2.188-22.195 6.75-18.367 12.281-23.297 37.125-11.023 55.484 40.727 60.922 62.258 131.727 62.258 204.773 0 204.57-166.43 371-371 371s-371-166.43-371-371 166.43-371 371-371c69.727 0 134.078 17.563 191.273 52.211 18.898 11.445 43.492 5.406 54.938-13.484 11.445-18.898 5.406-43.492-13.484-54.938-68.891-41.734-149.367-63.789-232.727-63.789-120.469 0-233.719 46.914-318.906 132.094-85.18 85.188-132.094 198.438-132.094 318.906s46.914 233.719 132.094 318.906c75.922 75.922 174.156 121.406 279.906 130.406v43.688h-38c-22.094 0-40 17.906-40 40s17.906 40 40 40h160c22.094 0 40-17.906 40-40s-17.906-40-40-40h-42v-43.859c70.57-6.32 137.734-28.906 197.102-65.945l33.461 42.531c13.656 17.367 38.805 20.375 56.164 6.711 17.367-13.656 20.375-38.805 6.711-56.164l-32.469-41.281c5.758-5.203 11.406-10.563 16.938-16.086 85.18-85.188 132.094-198.438 132.094-318.906zM511.961 120c22.094 0 40 17.906 40 40v23.164c55.023 7.688 96.039 52.945 96.039 109.336v9.82c0 30.227-11.828 58.461-33.313 79.5-21.188 20.75-49.391 32.18-79.414 32.18h-36.656c-17.625 0-32.508 15.57-32.508 34v14.586c0 17.906 13.969 31.414 32.508 31.414h34.656c10.188 0 20.727-6.82 20.727-18.234 0-22.086 17.906-40 40-40s40 17.914 40 40c0 47.938-35.398 87.945-82.039 96.516v25.719c0 22.094-17.906 40-40 40s-40-17.906-40-40v-27.094c-19.797-4.68-37.93-14.547-52.641-28.938-21.422-20.953-33.211-49.148-33.211-79.383v-14.586c0-62.859 50.469-114 112.508-114h36.656c18.352 0 32.727-13.914 32.727-31.68v-9.82c0-17.383-14.070-30.5-32.727-30.5h-59.57c-9.828 0-19.781 6.18-19.781 18 0 22.094-17.906 40-40 40s-40-17.906-40-40c0-53.719 41.891-96.039 96.039-97.906v-22.094c0-22.094 17.906-40 40-40z" />
<glyph unicode="&#xe933;" glyph-name="blocked" d="M455.555 839.289c-0.125-4.211 0.375-8.336 1.508-12.297 5.758-11.695 11.961-24.031 18.492-37.039 43.102-85.82 60.656-123.164 60.656-147.211l-0.023-1.523c-2.672-69.93-70.094-113.219-131.039-113.219h-263.148c-18.75 0-34-15.25-34-34 0-11.086 5.531-21.539 14.797-27.969 19.18-13.305 23.203-29.109 23.203-40.031 0-22.047-16.164-40.945-40.219-47.016-14.938-3.766-25.781-17.633-25.781-32.984 0-17.398 12.898-32.797 28.156-33.625 37.766-2.039 47.844-28.133 47.844-43.227 0-17.508-8.961-31.227-26.641-40.773-0.57-0.313-1.203-0.648-1.875-1.039-10.703-6.156-17.352-17.398-17.352-29.336 0-18.742 15.633-34 34.844-34h9.023c28.039 0 50-19.922 50-45.359 0-9.5-3.352-27.281-25.789-39.664-4.273-2.352-18.211-11.328-18.211-27.828 0-11.172 3.359-37.148 34.43-37.148h301.57c22.094 0 40-17.906 40-40 0-22.086-17.906-40-40-40h-301.57c-66.305 0-114.43 49.266-114.43 117.148 0 16.227 3.742 32.039 10.625 46.453-35.984 19.266-60.492 57.047-60.492 100.398 0 19.984 5.367 39.32 15.070 56.234-5.75 4.383-11.133 9.391-16.078 14.969-18.781 21.211-29.125 48.484-29.125 76.797 0 36.055 16.859 68.867 43.961 89.961-10.305 17.352-15.961 37.344-15.961 58.039 0 62.859 51.141 114 114 114h263.148c19.961 0 47.992 12.766 50.875 33.727-4.438 17.711-34.031 76.633-51.961 112.32-7.109 14.156-13.82 27.523-20.109 40.32l-1.109 2.258-0.82 2.383c-4.711 13.734-6.875 28.109-6.43 42.734 0.953 30.969 13.773 60.063 36.102 81.914 22.32 21.836 51.672 34.039 82.648 34.336 32.977 0.273 63.82-12.453 86.883-35.984l2.188-2.234 25.781-36.203 194.82-303.367c4.906-7.641 13.25-12.195 22.328-12.195h157.656c22.094 0 40-17.914 40-40 0-22.094-17.906-40-40-40h-157.656c-36.445 0-69.953 18.305-89.641 48.961l-194.297 302.547-20.18 28.281c-7.352 6.609-16.719 10.203-26.695 10.203-0.133 0-0.266 0-0.406 0-21.164-0.211-38.922-17.57-39.57-38.711zM1024 174v-200c0-22.094-17.906-40-40-40h-336c-22.094 0-40 17.906-40 40v200c0 51.070 38.484 93.289 87.969 99.25v32.75c0 65.055 53.828 117.977 120 117.977 66.164 0 120-52.922 120-117.977v-32.742c49.516-5.93 88.031-48.164 88.031-99.258zM775.969 306v-32h80v32c0 20.938-17.945 37.977-40 37.977-22.063 0-40-17.031-40-37.977zM944 174c0 11.031-8.969 20-20 20h-216c-11.031 0-20-8.969-20-20v-160h256z" />
<glyph unicode="&#xe934;" glyph-name="worldwide" d="M984 16h-432v97.758c59.133 5.344 116.719 23 168.453 51.922 19.281 10.781 26.172 35.156 15.391 54.438s-35.141 26.172-54.43 15.391c-1.617-0.898-3.258-1.75-4.883-2.625 2.445 4.461 4.852 9.016 7.195 13.703 34.172 68.328 54.883 155.719 59.484 249.414h112.25c-5.93-51.031-23.133-100.055-50.695-143.633-11.813-18.664-6.258-43.375 12.414-55.188 6.633-4.195 14.039-6.203 21.352-6.203 13.258 0 26.227 6.586 33.836 18.625 42.82 67.68 65.453 145.969 65.453 226.398 0 233.797-190.211 424-424 424-0.172 0-0.336-0.023-0.5-0.023-0.383 0-0.758 0.023-1.133 0.023-233.797 0-424-190.203-424-424 0-220.242 168.797-401.773 383.813-422.086v-97.914h-432c-22.094 0-40-17.906-40-40s17.906-40 40-40h944c22.094 0 40 17.906 40 40s-17.906 40-40 40zM412.203 282.359c-2.641 5.281-5.18 10.727-7.633 16.281 21.875 2.242 44.492 3.805 67.617 4.641v-95.609c-0.055-0.563-0.055-1.141-0.086-1.719-21.453 14.789-42.156 40.914-59.898 76.406zM552.188 303.281c23.109-0.836 45.734-2.438 67.805-4.719-19.25-43.719-43.047-75.695-67.805-92.672zM472.188 383.305c-32.117-1.102-63.508-3.516-93.602-7.156-9.164 37.219-15.039 77.664-17.313 119.852h110.914zM361.273 576c2.305 42.766 8.297 83.742 17.68 121.383 29.93-3.594 61.18-5.977 93.234-7.070v-114.313zM552.188 866.109c24.453-16.766 47.977-48.18 67.102-91.086-21.766-2.234-44.227-3.797-67.102-4.648zM472.188 770.375c-22.797 0.844-45.188 2.414-66.891 4.641 2.227 4.977 4.523 9.867 6.906 14.625 17.766 35.547 38.5 61.695 59.984 76.469zM552.188 690.312c32.102 1.086 63.383 3.469 93.328 7.070 9.031-36.359 15.242-77.141 17.602-121.383h-110.93zM724.523 710.359c26.219 5.586 50.727 12.234 73.055 19.867 30.844-44.922 51.297-97.484 57.898-154.227h-112.273c-2.297 46.898-8.641 92.219-18.68 134.359zM700.688 787.172c-5.219 13.305-10.875 26.078-16.961 38.242-2.32 4.641-4.695 9.141-7.117 13.555 22.32-12.039 43.172-26.469 62.195-42.945-12.133-3.227-24.859-6.18-38.117-8.852zM340.641 825.422c-6.078-12.172-11.734-24.938-16.953-38.242-12.797 2.578-25.102 5.43-36.859 8.523 18.469 16.039 38.656 30.141 60.242 42.008-2.172-4.016-4.328-8.094-6.43-12.289zM299.852 710.375c-10.047-42.141-16.383-87.469-18.688-134.375h-110.641c6.586 56.555 26.922 108.961 57.594 153.781 21.969-7.438 46.031-13.93 71.734-19.406zM281.164 496c2.281-46.352 8.5-91.148 18.344-132.867-25.945-5.531-50.211-12.094-72.297-19.609-30.172 44.531-50.172 96.477-56.688 152.477zM323.070 286.437c5.391-13.883 11.25-27.203 17.578-39.859 2.094-4.195 4.25-8.273 6.43-12.281-22.172 12.18-42.859 26.734-61.719 43.32 12.023 3.211 24.609 6.156 37.711 8.82zM645.891 376.156c-30.313 3.672-61.625 6.070-93.703 7.148v112.695h110.93c-2.328-43.625-8.406-83.875-17.227-119.844z" />
<glyph unicode="&#xe935;" glyph-name="message" d="M1011.625 81.977l-65.797 120.344v105.617c0 22.094-17.906 40-40 40-22.086 0-39.992-17.906-39.992-40v-73.891h-703.961v469.969h98.867c3.352-37.938 16.609-74.766 38.484-106.844l-36.445-90.148c-6.102-15.094-2.445-32.383 9.242-43.711 7.625-7.391 17.656-11.281 27.852-11.281 5.445 0 10.938 1.109 16.125 3.398l107.992 47.602c28.344-9.891 58.156-14.898 88.859-14.898 42.102 0 83.773 9.789 120.563 28.32 34.586 15.945 65.344 42.289 91.43 78.313 0.133 0.188 0.266 0.375 0.398 0.563 22.836 32.703 36.383 69.945 39.742 108.688h100.852v-195.992c0-22.086 17.906-39.992 40-39.992 22.086 0 39.992 17.906 39.992 39.992v235.992c0 22.086-17.906 39.992-39.992 39.992h-148.648c-28.977 100.094-127.531 173.992-244.336 173.992-116.797 0-215.352-73.898-244.328-173.992h-146.648c-22.094 0-40-17.906-40-39.992v-534.383l-69.797-127.656c-16.797-30.719-16.039-67.25 2.031-97.727 18.641-31.422 51.484-50.188 87.867-50.188h821.758c35.742 0 67.953 18.336 86.164 49.047 18.172 30.648 18.82 67.609 1.727 98.867zM512.852 878.008c95.383 0 172.992-69.508 172.992-154.938 0-28.961-8.992-57.195-26-81.664-18.258-25.141-38.008-42.313-60.383-52.508-0.516-0.234-1.023-0.484-1.531-0.734-25.797-13.109-55.219-20.039-85.078-20.039-25.953 0-50.906 5.039-74.18 14.969-5.016 2.133-10.359 3.203-15.695 3.203-5.5 0-11-1.133-16.133-3.398l-32.977-14.539 8.047 19.914c5.586 13.82 3.023 29.594-6.641 40.938-23.164 27.18-35.414 59.633-35.414 93.859 0 85.43 77.609 154.938 172.992 154.938zM941.094 23.914c-1.758-2.961-6.969-9.852-17.359-9.852h-274c-1.094 21.102-18.508 37.898-39.891 37.898h-197.984c-21.383 0-38.797-16.789-39.891-37.898h-270c-11.625 0-17.523 8.414-19.047 10.992-2.102 3.531-4.969 10.648-0.656 18.547l60.391 110.453h738.391l60.391-110.453c4.727-8.648 1.813-16.047-0.344-19.688z" />
<glyph unicode="&#xe936;" glyph-name="mail-advertising" d="M593.992 216.008c55.141 0 100 44.859 100 100s-44.859 100-100 100c-55.133 0-99.992-44.859-99.992-100s44.859-100 99.992-100zM593.992 336.008c11.031 0 20-8.977 20-20 0-11.031-8.969-20-20-20-11.023 0-20 8.969-20 20 0 11.023 8.977 20 20 20zM923.992 136.008c-55.141 0-100-44.859-100-100s44.859-100 100-100c55.141 0 100 44.859 100 100s-44.859 100-100 100zM923.992 16.008c-11.023 0-20 8.969-20 20 0 11.023 8.977 20 20 20 11.031 0 20-8.977 20-20 0-11.031-8.969-20-20-20zM907.031 357.008l-215.836-399.992c-7.227-13.398-21.008-21.016-35.234-21.016-6.414 0-12.922 1.547-18.961 4.805-19.445 10.492-26.695 34.758-16.211 54.195l215.836 400c10.492 19.438 34.758 26.688 54.203 16.203 19.438-10.492 26.695-34.75 16.203-54.195zM903.992 960h-783.992c-66.172 0-120-53.828-120-120v-120c0-22.094 17.906-40 40-40v-583.992c0-88.227 71.773-160 160-160h296c22.086 0 39.992 17.906 39.992 40s-17.906 40-39.992 40h-296c-44.109 0-80 35.891-80 80v583.992h783.992v-160c0-22.086 17.906-40 40-40s40 17.914 40 40v160c22.094 0 40 17.906 40 40v120c0 66.172-53.828 120-120 120zM80 840c0 22.055 17.945 40 40 40h783.992c22.055 0 40-17.945 40-40v-80h-863.992zM599.992 520h-179.992c-22.094 0-40 17.914-40 40 0 22.094 17.906 40 40 40h179.992c22.094 0 40-17.906 40-40 0-22.086-17.906-40-40-40z" />
<glyph unicode="&#xe937;" glyph-name="omni-channel" d="M926 344.398v233.602c0 5.625-1.172 10.969-3.266 15.82-4.383 17.336-20.039 30.18-38.734 30.18-22.055 0-40 17.945-40 40s17.945 40 40 40 40-17.945 40-40c0-22.094 17.906-40 40-40s40 17.906 40 40c0 66.172-53.828 120-120 120-32.523 0-62.047-13.023-83.68-34.102l-168.656 81.602c0.203 2.813 0.336 5.641 0.336 8.5 0 66.172-53.828 120-120 120s-120-53.828-120-120c0-3.133 0.156-6.234 0.398-9.313l-169.367-80.18c-21.57 20.719-50.828 33.492-83.031 33.492-66.172 0-120-53.828-120-120 0-51.398 32.484-95.336 78-112.398v-207.203c-45.516-17.063-78-61-78-112.398 0-66.172 53.828-120 120-120 32.711 0 62.398 13.172 84.063 34.477l168.383-80.57c-0.273-3.273-0.445-6.57-0.445-9.906 0-66.172 53.828-120 120-120 22.094 0 40 17.906 40 40s-17.906 40-40 40c-22.055 0-40 17.945-40 40s17.945 40 40 40 40-17.945 40-40c0-22.094 17.906-40 40-40s40 17.906 40 40c0 3.609-0.188 7.172-0.5 10.703l169.086 79.148c21.609-20.93 51.023-33.852 83.414-33.852 22.094 0 40 17.906 40 40s-17.906 40-40 40c-22.055 0-40 17.945-40 40s17.945 40 40 40 40-17.945 40-40c0-22.094 17.906-40 40-40s40 17.906 40 40c0 51.398-32.484 95.336-78 112.398zM512 880c22.055 0 40-17.945 40-40s-17.945-40-40-40-40 17.945-40 40 17.945 40 40 40zM140 704c22.055 0 40-17.945 40-40s-17.945-40-40-40-40 17.945-40 40 17.945 40 40 40zM140 192c-22.055 0-40 17.945-40 40s17.945 40 40 40 40-17.945 40-40-17.945-40-40-40zM764 232c0-4.914 0.328-9.758 0.906-14.516l-166.766-78.063c-21.828 22.531-52.367 36.578-86.141 36.578-34.055 0-64.813-14.281-86.68-37.141l-166.117 79.492c0.508 4.484 0.797 9.031 0.797 13.648 0 52.891-34.406 97.859-82 113.797v204.406c47.594 15.938 82 60.906 82 113.797 0 5.094-0.359 10.109-0.977 15.039l165.891 78.531c21.883-23.109 52.82-37.57 87.086-37.57 34.547 0 65.703 14.695 87.625 38.133l165.242-79.953c-0.555-4.656-0.867-9.383-0.867-14.18 0-52.891 34.406-97.859 82-113.797v-204.406c-47.594-15.938-82-60.906-82-113.797zM629.969 518.766v33.234c0 65.047-53.836 117.969-120 117.969-66.172 0-120-52.922-120-117.969v-33.266c-34.195-15.914-57.969-50.578-57.969-90.703v-142.031c0-22.094 17.906-40 40-40h276c22.094 0 40 17.906 40 40v142.031c0 40.156-23.805 74.836-58.031 90.734zM509.969 589.969c22.055 0 40-17.031 40-37.969v-23.969h-80v23.969c0 20.938 17.938 37.969 40 37.969zM608 326h-196v102.031c0 11.023 8.969 20 20 20h156c11.031 0 20-8.977 20-20z" />
<glyph unicode="&#xe938;" glyph-name="businessman" d="M1021.404 82.556c-4.502 21.626-25.688 35.506-47.312 31.006-21.63-4.504-35.512-25.686-31.008-47.314 2.594-12.456-0.494-25.226-8.472-35.036-4.622-5.68-14.922-15.212-31.998-15.212h-180.614c-22.092 0-40-17.908-40-40s17.908-40 40-40h180.614c36.658 0 70.942 16.306 94.064 44.738 23.236 28.574 32.25 65.684 24.726 101.818zM552.612 414.462c131.414-12.104 250.954-82.538 325.406-193.576 12.3-18.348 37.152-23.252 55.498-10.948 18.35 12.304 23.25 37.152 10.948 55.5-65.636 97.892-160.95 169.060-269.624 204.824 66.23 49.658 109.16 128.778 109.16 217.738 0 149.982-122.020 272-272 272s-272-122.018-272-272c0-89.018 42.984-168.184 109.286-217.834-60.742-19.996-117.742-51.094-167.626-92.124-91.464-75.234-155.058-180.174-179.064-295.486-7.524-36.134 1.49-73.244 24.726-101.818 23.12-28.432 57.406-44.738 94.064-44.738h174.614c22.092 0 40 17.908 40 40s-17.908 40-40 40h-174.618c-17.076 0-27.376 9.53-31.998 15.212-7.978 9.812-11.066 22.58-8.472 35.038 39.168 188.136 197.96 328.404 386.374 347.77l-76.362-347.418c-2.926-13.326 1.138-27.224 10.784-36.87l80.004-80.014c7.5-7.504 17.676-11.718 28.288-11.718 10.61 0 20.784 4.216 28.286 11.718l79.996 80.014c9.646 9.648 13.71 23.544 10.782 36.868l-76.452 347.862zM320 688c0 105.87 86.13 192 192 192s192-86.13 192-192c0-102.674-81.010-186.778-182.47-191.764-3.172 0.058-6.348 0.096-9.53 0.096-3.122 0-6.24-0.046-9.358-0.102-101.54 4.898-182.642 89.038-182.642 191.77zM509.998 34.574l-36.234 36.24 36.234 164.85 36.23-164.852-36.23-36.238z" />
<glyph unicode="&#xe939;" glyph-name="percentage" d="M1024 840.234v-159.688c0-22.047-17.875-39.922-39.922-39.922s-39.922 17.875-39.922 39.922v143.148l-598.547-598.547c-7.797-7.797-18.008-11.688-28.227-11.688s-20.438 3.891-28.234 11.688c-15.586 15.594-15.586 40.867 0 56.461l598.547 598.547h-145.148c-22.047 0-39.922 17.875-39.922 39.922s17.875 39.922 39.922 39.922h161.688c66.039 0 119.766-53.727 119.766-119.766zM971.063 558.352c-21.805-3.242-36.859-23.555-33.617-45.359 3.125-21.031 4.711-42.563 4.711-63.992 0-85.016-25.281-167.766-73.109-239.305-12.25-18.328-7.328-43.125 11-55.375 6.82-4.555 14.523-6.734 22.156-6.734 12.883 0 25.523 6.219 33.219 17.734 56.641 84.719 86.578 182.813 86.578 283.68 0 25.352-1.875 50.828-5.578 75.734-3.242 21.805-23.547 36.859-45.359 33.617zM734.039 79.93c-67.055-40.617-144.18-62.086-223.039-62.086-237.742 0-431.156 193.414-431.156 431.156s193.414 431.156 431.156 431.156c22.68 0 45.437-1.773 67.648-5.273 21.781-3.414 42.219 11.445 45.648 33.227s-11.445 42.219-33.227 45.648c-26.305 4.141-53.242 6.242-80.070 6.242-136.492 0-264.813-53.156-361.336-149.664-96.516-96.523-149.664-224.844-149.664-361.336s53.148-264.82 149.664-361.336c96.523-96.516 224.844-149.664 361.336-149.664 93.445 0 184.875 25.461 264.406 73.641 18.859 11.422 24.891 35.969 13.469 54.828-11.43 18.859-35.977 24.883-54.836 13.461zM347.32 688.531c55.031 0 99.805-44.773 99.805-99.805s-44.773-99.805-99.805-99.805-99.805 44.773-99.805 99.805 44.773 99.805 99.805 99.805zM347.32 608.687c-11.008 0-19.961-8.953-19.961-19.961s8.953-19.961 19.961-19.961 19.961 8.953 19.961 19.961c0 11.008-8.953 19.961-19.961 19.961zM676.68 209.469c-55.031 0-99.805 44.773-99.805 99.805s44.773 99.805 99.805 99.805 99.805-44.773 99.805-99.805-44.773-99.805-99.805-99.805zM676.68 289.312c11.008 0 19.961 8.953 19.961 19.961s-8.953 19.961-19.961 19.961-19.961-8.953-19.961-19.961c0-11.008 8.953-19.961 19.961-19.961z" />
<glyph unicode="&#xe93a;" glyph-name="print" d="M984 336c22.094 0 40 17.906 40 40v86c0 59.914-33.125 112.211-82 139.625v140.375c0 22.094-17.906 40-40 40h-120v138c0 22.094-17.906 40-40 40h-460c-22.094 0-40-17.906-40-40v-138h-120c-22.094 0-40-17.906-40-40v-140.375c-48.875-27.414-82-79.711-82-139.625v-286c0-88.227 71.773-160 160-160h82v-40c0-22.094 17.906-40 40-40h460c22.094 0 40 17.906 40 40v40h82c88.227 0 160 71.773 160 160 0 22.094-17.906 40-40 40s-40-17.906-40-40c0-44.109-35.891-80-80-80h-82v166h42c22.094 0 40 17.906 40 40s-17.906 40-40 40h-624c-22.094 0-40-17.906-40-40s17.906-40 40-40h42v-166h-82c-44.109 0-80 35.891-80 80v286c0 44.109 35.891 80 80 80h704c44.109 0 80-35.891 80-80v-86c0-22.094 17.906-40 40-40zM702 262v-246h-380v246zM862 702v-80h-80v80zM702 880v-258h-380v258zM242 702v-80h-80v80zM382 742c0 22.094 17.906 40 40 40h180c22.094 0 40-17.906 40-40s-17.906-40-40-40h-180c-22.094 0-40 17.906-40 40z" />
<glyph unicode="&#xe93b;" glyph-name="histogram" d="M984 16c-29.188 0-72.805 10.867-114.469 104.813-33.086 74.625-54.969 180-73.695 282.766-3.961 21.727-24.789 36.133-46.523 32.18-19.406-3.539-32.938-20.531-32.789-39.609-0.313-2.008-0.523-4.055-0.523-6.148v-374h-80v745.039c19.063-52.164 33.648-115.766 46.078-178.781 4.281-21.672 25.328-35.781 46.992-31.5 21.672 4.273 35.773 25.313 31.5 46.984-15.023 76.156-36.727 172.547-71.477 242.617-39.383 79.391-92.906 119.641-159.094 119.641-42.781 0-80.945-16.984-113.422-50.484-26.016-26.828-48.445-64.258-68.586-114.43-35.141-87.578-58.008-199.695-82.211-318.398-24.133-118.336-49.086-240.703-86.328-329.945-34.438-82.508-69.75-113.641-99.453-124.844v898.102c0 22.094-17.906 40-40 40s-40-17.906-40-40v-944c0-22.094 17.906-40 40-40h944c22.094 0 40 17.906 40 40s-17.906 40-40 40zM796 89.305c0.133-0.305 0.266-0.617 0.398-0.914 12.563-28.328 26.164-52.289 41.086-72.391h-41.484zM558.391 873.508c-1.523-4.227-2.391-8.758-2.391-13.508v-844h-80v839.992c20.734 20.398 39.414 24.008 54 24.008 10.063 0 19.508-2.266 28.391-6.492zM396 687.297v-671.297h-80v300c0 2.719-0.281 5.375-0.797 7.945 10.25 44.984 19.664 91.156 28.961 136.758 16.57 81.234 32.492 159.266 51.836 226.594zM236 16h-38.758c13.813 17.656 26.68 38.305 38.758 62.242z" />
<glyph unicode="&#xe93c;" glyph-name="laptop" d="M983.828 14.164h-431.922v132.078h371.836c35.742 0 67.953 18.336 86.156 49.039 18.172 30.648 18.82 67.602 1.727 98.859l-65.789 120.328v105.609c0 22.086-17.906 39.992-39.992 39.992s-39.992-17.906-39.992-39.992v-73.891h-703.883v431.828h703.883v-155.977c0-22.086 17.906-39.992 39.992-39.992s39.992 17.906 39.992 39.992v195.969c0 22.086-17.906 39.992-39.992 39.992h-783.867c-22.086 0-39.992-17.906-39.992-39.992v-496.227l-69.789-127.648c-16.797-30.711-16.031-67.242 2.031-97.711 18.633-31.422 51.477-50.18 87.852-50.18h369.836v-132.078h-431.922c-22.086 0-39.992-17.906-39.992-39.992s17.906-39.992 39.992-39.992h943.836c22.086 0 39.992 17.906 39.992 39.992s-17.906 39.992-39.992 39.992zM83.031 237.219c-2.102 3.539-4.977 10.648-0.656 18.547l60.383 110.438h738.305l60.383-110.438c4.727-8.648 1.813-16.047-0.344-19.688-1.758-2.961-6.969-9.852-17.359-9.852h-273.961c-1.102 21.102-18.508 37.891-39.891 37.891h-197.961c-21.383 0-38.789-16.789-39.891-37.891h-269.961c-11.633 0-17.523 8.414-19.047 10.992z" />
<glyph unicode="&#xe93d;" glyph-name="pie-chart" d="M994.148 718.008c-19.805 47.813-48.391 90.602-84.961 127.18-36.57 36.57-79.367 65.156-127.18 84.961-47.813 19.813-98.289 29.852-150.008 29.852-22.094 0-40-17.906-40-40v-312c0-44.109 35.891-80 80-80h312c22.094 0 40 17.906 40 40 0 51.719-10.039 102.195-29.852 150.008zM747.828 857.5l-75.828-75.828v95.703c26.031-3.422 51.531-10.148 75.828-19.875zM672 668.531l148.211 148.211c11.414-8.586 22.25-17.969 32.406-28.125 10.289-10.289 19.789-21.289 28.484-32.867l-149.625-147.75h-59.477zM845.336 608l76.344 75.391c9.625-24.164 16.289-49.516 19.695-75.391zM944 408c0-89.25-25.039-176.156-72.406-251.328-11.781-18.688-36.477-24.289-55.172-12.516-18.688 11.781-24.289 36.477-12.516 55.172 32.203 51.094 51.969 108.742 58.063 168.672h-309.969c-66.172 0-120 53.828-120 120v309.977c-197.438-20.094-352-187.32-352-389.977 0-216.148 175.852-392 392-392 71.875 0 142.156 19.617 203.227 56.719 18.883 11.469 43.484 5.469 54.961-13.414 11.469-18.875 5.461-43.484-13.414-54.953-73.602-44.719-158.242-68.352-244.773-68.352-126.414 0-245.039 49-334.016 137.984-88.984 88.977-137.984 207.602-137.984 334.016 0 126.078 49.094 244.609 138.242 333.758s207.68 138.242 333.758 138.242c22.094 0 40-17.906 40-40v-352c0-22.055 17.945-40 40-40h352c22.094 0 40-17.906 40-40z" />
<glyph unicode="&#xe93e;" glyph-name="money" d="M523.836 178.226c0-22.086-17.906-39.984-39.992-39.984h-325.899c-88.195 0-159.945 71.75-159.945 159.945v431.867c0 88.195 71.75 159.945 159.945 159.945h703.781c88.195 0 159.945-71.75 159.945-159.945v-271.914c0-22.086-17.898-39.992-39.984-39.992s-39.984 17.906-39.984 39.992v271.914c0 44.094-35.883 79.969-79.977 79.969h-703.781c-44.094 0-79.969-35.875-79.969-79.969v-431.867c0-44.094 35.875-79.977 79.969-79.977h325.899c22.086 0 39.992-17.898 39.992-39.984zM493.383 380.68c-60.148 8.422-105.508 65.891-105.508 133.688 0 74.961 54.711 135.953 121.961 135.953 62.758 0 114.914-52.398 121.32-121.875 2.023-21.992 21.477-38.164 43.492-36.148 21.984 2.031 38.172 21.5 36.141 43.492-4.844 52.523-27.523 101.234-63.867 137.172-37.398 36.969-86.078 57.336-137.086 57.336-111.344 0-201.938-96.867-201.938-215.93 0-52.188 17.461-102.359 49.172-141.273 32.078-39.367 76.555-64.805 125.234-71.617 1.875-0.258 3.742-0.391 5.594-0.391 19.625 0 36.75 14.461 39.547 34.453 3.063 21.867-12.188 42.078-34.063 45.141zM827.735 556.109c-22.086 0-39.984-17.906-39.984-39.992s17.898-39.984 39.984-39.984c22.086 0 39.992 17.898 39.992 39.984s-17.906 39.992-39.992 39.992zM151.953 516.117c0-22.086 17.898-39.984 39.984-39.984s39.984 17.898 39.984 39.984c0 22.086-17.898 39.992-39.984 39.992s-39.984-17.906-39.984-39.992zM1010.289 14c-7.805-7.813-18.039-11.719-28.273-11.719s-20.469 3.906-28.281 11.711l-91.273 91.273c-27.523-17.109-59.977-27.008-94.711-27.008-99.219 0-179.938 80.727-179.938 179.945s80.719 179.938 179.938 179.938c99.227 0 179.945-80.719 179.945-179.938 0-35.594-10.391-68.813-28.297-96.773l90.891-90.883c15.617-15.617 15.617-40.938 0-56.547zM767.758 158.234c55.117 0 99.969 44.844 99.969 99.969 0 55.117-44.852 99.969-99.969 99.969-55.125 0-99.969-44.852-99.969-99.969 0-55.125 44.844-99.969 99.969-99.969z" />
<glyph unicode="&#xe93f;" glyph-name="contact-book" d="M902 296v584h-662c-22.055 0-40-17.945-40-40v-52h40c22.094 0 40-17.906 40-40s-17.906-40-40-40h-80c-22.055 0-40-17.945-40-40s17.945-40 40-40c22.094 0 40-17.906 40-40v-40h40c22.094 0 40-17.906 40-40s-17.906-40-40-40h-80c-22.055 0-40-17.945-40-40s17.945-40 40-40c22.094 0 40-17.906 40-40v-40h40c22.094 0 40-17.906 40-40s-17.906-40-40-40h-80c-22.055 0-40-17.945-40-40s17.945-40 40-40c22.094 0 40-17.906 40-40v-52c0-22.055 17.945-40 40-40h662v80c0 22.094 17.906 40 40 40s40-17.906 40-40v-120c0-22.094-17.906-40-40-40h-702c-66.172 0-120 53.828-120 120v18.852c-46.563 16.516-80 61-80 113.148s33.445 96.609 80 113.117v13.734c-46.563 16.516-80 61-80 113.148s33.445 96.609 80 113.117v13.742c-46.563 16.508-80 60.992-80 113.141s33.445 96.609 80 113.125v58.875c0 66.172 53.828 120 120 120h702c22.094 0 40-17.906 40-40v-624c0-22.094-17.906-40-40-40s-40 17.906-40 40zM461.953 477.836c-12.594 18.984-19.953 41.727-19.953 66.164 0 66.172 53.828 120 120 120s120-53.828 120-120c0-24.43-7.359-47.172-19.945-66.148 50.461-28.172 88.641-77.023 101.836-136.195 0.25-0.906 0.477-1.828 0.672-2.766 4.234-20.469-0.914-41.508-14.125-57.727-13.023-15.992-32.234-25.164-52.719-25.164h-271.438c-20.578 0-39.836 9.164-52.852 25.141-13.102 16.094-18.203 37.008-13.992 57.375 12.531 60.586 51.172 110.656 102.516 139.32zM562 504c22.055 0 40 17.945 40 40s-17.945 40-40 40-40-17.945-40-40 17.945-40 40-40zM441.414 336h241.172c-16.875 51.742-65.531 88-120.586 88s-103.711-36.258-120.586-88z" />
<glyph unicode="&#xe940;" glyph-name="invite" d="M669.883 619.883c0-22.094-17.906-39.992-39.992-39.992h-79.984v-79.992c0-22.086-17.906-39.992-39.992-39.992-22.094 0-39.992 17.906-39.992 39.992v79.992h-79.992c-22.086 0-39.992 17.898-39.992 39.992 0 22.086 17.906 39.992 39.992 39.992h79.992v79.984c0 22.086 17.898 39.992 39.992 39.992 22.086 0 39.992-17.906 39.992-39.992v-79.984h79.984c22.086 0 39.992-17.906 39.992-39.992zM943.836 295.938v226.687l-347.453-216.055c-26.047-16.195-55.258-24.297-84.469-24.297s-58.422 8.102-84.477 24.297l-347.453 216.055v-426.656c0-44.102 35.883-79.984 79.984-79.984h703.882c44.102 0 79.984 35.883 79.984 79.984 0 22.094 17.906 39.992 39.992 39.992s39.992-17.898 39.992-39.992c0-88.203-71.758-159.969-159.969-159.969h-703.882c-88.203 0-159.969 71.766-159.969 159.969v478.742c0 54.836 27.578 105.211 73.773 134.766l353.234 225.945c0.141 0.094 0.281 0.187 0.43 0.281 52.102 32.398 116.844 32.398 168.945 0 0.156-0.094 0.305-0.187 0.453-0.289l353.281-226.219c46.148-29.555 73.703-79.914 73.703-134.711v-278.547c0-22.086-17.906-39.992-39.992-39.992s-39.992 17.906-39.992 39.992zM934.89 611.258c-6.336 12.258-15.836 22.852-27.906 30.578l-353.039 226.062c-25.953 16.039-58.125 16.039-84.078-0.008l-352.992-225.797c-12.148-7.773-21.687-18.437-28.039-30.781l380.836-236.812c26.055-16.195 58.422-16.195 84.477 0z" />
<glyph unicode="&#xe941;" glyph-name="task-planning" d="M433.773 16h-219.773c-44.109 0-80 35.891-80 80v604c0 44.109 35.891 80 80 80h125.781v-20c0-66.172 53.828-120 120-120 66.164 0 120 53.828 120 120v20h126c44.109 0 80-35.891 80-80v-178c0-22.094 17.906-40 40-40 22.086 0 40 17.906 40 40v178c0 88.227-71.781 160-160 160h-126v60c0 22.094-17.914 40-40 40h-160c-22.094 0-40-17.906-40-40v-60h-125.781c-88.227 0-160-71.773-160-160v-604c0-88.227 71.773-160 160-160h219.781c22.086 0 40 17.906 40 40s-17.914 40-40.008 40zM419.773 880h80v-120c0-22.055-17.945-40-40-40s-40 17.945-40 40zM729.773 420c-133.438 0-242-108.563-242-242s108.563-242 242-242c133.445 0 242 108.563 242 242s-108.555 242-242 242zM729.773 16c-89.328 0-162 72.672-162 162s72.672 162 162 162c89.328 0 162-72.672 162-162s-72.672-162-162-162zM827.773 178c0-22.094-17.906-40-40-40h-58c-22.086 0-40 17.906-40 40v82c0 22.094 17.914 40 40 40 22.094 0 40-17.906 40-40v-42h18c22.094 0 40-17.906 40-40z" />
<glyph unicode="&#xe942;" glyph-name="enterprise" d="M944 296v584h-86.867l-97.469-749.156c-2.617-20.156-19.82-34.852-39.617-34.852-1.719 0-3.453 0.117-5.203 0.344-21.914 2.852-37.359 22.922-34.508 44.82l40.18 308.844h-120.516c-22.094 0-40 17.906-40 40v84.844l-133.922-115.172c-11.852-10.195-28.555-12.547-42.766-6.023-14.203 6.516-23.313 20.719-23.313 36.352v84.844l-133.922-115.172c-11.852-10.195-28.555-12.547-42.766-6.023-14.203 6.516-23.313 20.719-23.313 36.352v80.828l-80-76v-398.828c0-44.109 35.891-80 80-80h704c44.109 0 80 35.891 80 80 0 22.094 17.906 40 40 40s40-17.906 40-40c0-88.227-71.773-160-160-160h-704c-88.227 0-160 71.773-160 160v416c0 10.961 4.5 21.445 12.453 29l160 152c11.586 11.016 28.633 14.070 43.328 7.758s24.219-20.766 24.219-36.758v-86.844l133.922 115.172c11.852 10.195 28.555 12.547 42.766 6.023 14.203-6.516 23.313-20.719 23.313-36.352v-84.844l133.922 115.172c11.852 10.195 28.555 12.547 42.766 6.023 14.203-6.516 23.313-20.719 23.313-36.352v-132h90.922l51.414 395.156c2.594 19.938 19.57 34.844 39.664 34.844h162c22.094 0 40-17.906 40-40v-624c0-22.094-17.906-40-40-40s-40 17.906-40 40zM220 176h-20c-22.094 0-40-17.906-40-40s17.906-40 40-40h20c22.094 0 40 17.906 40 40s-17.906 40-40 40zM390 176h-20c-22.094 0-40-17.906-40-40s17.906-40 40-40h20c22.094 0 40 17.906 40 40s-17.906 40-40 40zM560 176h-20c-22.094 0-40-17.906-40-40s17.906-40 40-40h20c22.094 0 40 17.906 40 40s-17.906 40-40 40zM220 334h-20c-22.094 0-40-17.906-40-40s17.906-40 40-40h20c22.094 0 40 17.906 40 40s-17.906 40-40 40zM390 334h-20c-22.094 0-40-17.906-40-40s17.906-40 40-40h20c22.094 0 40 17.906 40 40s-17.906 40-40 40zM560 334h-20c-22.094 0-40-17.906-40-40s17.906-40 40-40h20c22.094 0 40 17.906 40 40s-17.906 40-40 40z" />
<glyph unicode="&#xe943;" glyph-name="advertising" d="M973.093 938.125c-31.875 22.445-72.812 28.008-109.523 14.875-1.125-0.406-2.242-0.859-3.328-1.367l-320.453-148.375c-70.555-32.664-145.742-49.453-223.476-49.906l-156.437-0.914c-88.164-0.070-159.875-71.82-159.875-160v-104c0-70.953 46.891-132.039 112-152.586v-278.187c0-32.555 13.383-64.352 36.719-87.242 22.625-22.203 52.125-34.344 83.305-34.336 0.766 0 1.531 0.008 2.297 0.023 31.57 0.602 61.156 13.352 83.297 35.891 22.172 22.57 34.383 52.437 34.383 84.078v272.492c67.359-5.078 133.953-22.875 194.695-52.227l19.031-9.773c19.656-10.094 43.766-2.344 53.852 17.305 10.094 19.656 2.344 43.766-17.305 53.859l-19.453 9.992c-0.281 0.141-0.555 0.281-0.836 0.414-71.664 34.711-150.437 55.391-229.984 60.609v265.812c76.766 4.742 151.094 23.547 221.398 56.102l318.547 147.492c12.008 3.812 24.711 1.867 35.086-5.437 10.781-7.594 16.969-19.516 16.969-32.703v-443.867c0-22.094 17.906-40 40-40s40 17.906 40 40v443.867c0 38.984-19.031 75.664-50.906 98.109zM272 56.078c0-21.633-17.586-39.57-39.203-39.984-10.352-0.211-20.336 3.859-28.055 11.43-8.102 7.945-12.742 18.93-12.742 30.141v311.070c0 21.062-16.328 38.508-37.344 39.914-41.859 2.789-74.656 37.836-74.656 79.789v104c0 44.109 35.891 80 80 80h0.234l111.766 0.648zM1012.281 207.867l-101.711-101.711 101.711-101.719c15.625-15.617 15.625-40.945 0-56.57-7.805-7.805-18.047-11.711-28.281-11.711s-20.477 3.906-28.281 11.711l-101.719 101.711-101.719-101.711c-7.805-7.812-18.047-11.719-28.281-11.719s-20.477 3.906-28.281 11.719c-15.625 15.617-15.625 40.945 0 56.57l101.711 101.711-101.711 101.719c-15.625 15.617-15.625 40.945 0 56.57 15.617 15.617 40.945 15.617 56.562 0l101.719-101.719 101.719 101.719c15.617 15.625 40.945 15.625 56.562 0 15.625-15.625 15.625-40.953 0-56.57z" />
<glyph unicode="&#xe944;" glyph-name="branching" d="M844.32 448.844c0-27.516 22.391-49.906 49.914-49.906 22.055 0 39.93-17.875 39.93-39.93s-17.875-39.93-39.93-39.93c-57.625 0-106.57 37.766-123.453 89.836h-141.914v-259.531c0-22.016 17.914-39.922 39.93-39.922h102.664c17.477 51.031 65.891 87.836 122.773 87.836 71.555 0 129.766-58.211 129.766-129.766 0-22.047-17.875-39.93-39.93-39.93-22.047 0-39.93 17.883-39.93 39.93 0 27.523-22.383 49.914-49.906 49.914s-49.914-22.391-49.914-49.914c0-27.516 22.391-49.906 49.914-49.906 22.055 0 39.93-17.875 39.93-39.93s-17.875-39.93-39.93-39.93c-58.359 0-107.836 38.734-124.102 91.836h-101.336c-66.055 0-119.789 53.734-119.789 119.781v259.531h-149.727v-63.805c0-52.055-33.375-96.461-79.859-112.945v-254.391c0-22.055-17.875-39.93-39.922-39.93-22.055 0-39.93 17.875-39.93 39.93v287.477c0 22.055 17.875 39.93 39.93 39.93 22.016 0 39.922 17.914 39.922 39.93v217.609c0 22.016-17.906 39.922-39.922 39.922h-159.719c-22.016 0-39.922-17.906-39.922-39.922v-217.609c0-22.016 17.906-39.93 39.922-39.93 22.055 0 39.93-17.875 39.93-39.93v-287.477c0-22.055-17.875-39.93-39.93-39.93-22.047 0-39.922 17.875-39.922 39.93v254.391c-46.484 16.477-79.859 60.883-79.859 112.945v217.602c0 66.055 53.734 119.789 119.781 119.789h159.719c66.047 0 119.781-53.734 119.781-119.789v-73.938h149.727v259.531c0 66.047 53.734 119.781 119.789 119.781h101.336c16.266 53.109 65.742 91.836 124.102 91.836 71.547 0 129.766-58.211 129.766-129.766 0-22.055-17.875-39.93-39.93-39.93s-39.93 17.875-39.93 39.93c0 27.523-22.391 49.906-49.906 49.906-27.523 0-49.914-22.383-49.914-49.906s22.391-49.914 49.914-49.914c22.047 0 39.922-17.875 39.922-39.922 0-22.055-17.875-39.93-39.922-39.93-56.883 0-105.305 36.805-122.781 87.844h-102.656c-22.016 0-39.93-17.914-39.93-39.93v-259.531h141.914c16.883 52.070 65.828 89.836 123.453 89.836 71.555 0 129.766-58.211 129.766-129.766 0-22.055-17.875-39.93-39.93-39.93-22.047 0-39.93 17.875-39.93 39.93 0 27.523-22.383 49.906-49.906 49.906-27.523 0.008-49.914-22.383-49.914-49.906zM79.859 840.219c0 66.047 53.734 119.781 119.781 119.781s119.781-53.734 119.781-119.781c0-66.055-53.734-119.789-119.781-119.789s-119.781 53.734-119.781 119.789zM159.711 840.219c0-22.016 17.914-39.93 39.93-39.93s39.93 17.914 39.93 39.93-17.914 39.922-39.93 39.922c-22.016 0-39.93-17.906-39.93-39.922z" />
<glyph unicode="&#xe945;" glyph-name="search-cloud" d="M1024 454c0-76.5-38.063-147.5-101.82-189.93-33.5-22.289-72.289-34.070-112.18-34.070-22.094 0-40 17.906-40 40s17.906 40 40 40c23.719 0 47.82 7.344 67.859 20.672 41.414 27.563 66.141 73.664 66.141 123.328 0 54.914-30.18 105.047-78.75 130.828-13.078 6.938-21.25 20.531-21.25 35.336v46.32c0 52.781-20.844 102.438-58.68 139.828-36.945 36.508-85.398 56.305-136.305 55.672-94.5-1.117-173.57-69.602-188.016-162.844-2.375-15.336-13.406-27.906-28.289-32.266-14.898-4.367-30.961 0.289-41.227 11.922-18.633 21.109-45.414 33.203-73.484 33.203-0.063 0-0.125 0-0.188 0-53.938-0.102-97.813-44.898-97.813-99.867v-70.133c0-22.094-17.906-40-40-40h-0.305c-54.977 0-99.695-43.961-99.695-98 0-54.953 42.172-98 96-98h48c22.094 0 40-17.906 40-40s-17.906-40-40-40h-48c-47.734 0-92.234 18.625-125.32 52.453-32.68 33.414-50.68 78-50.68 125.547 0 84.641 59.953 155.68 140 173.625v34.508c0 99 79.703 179.688 177.664 179.867 28.539 0.117 56.383-6.773 81.281-19.5 15.953 38.953 40.875 74.063 73.023 102.18 48.766 42.633 111.305 66.531 176.102 67.305 1.078 0.008 2.164 0.016 3.242 0.016 71.305 0 138.75-27.898 190.234-78.781 53.172-52.547 82.453-122.414 82.453-196.734v-23.773c62.234-42.188 100-112.445 100-188.711zM762.289 22.289c15.617-15.625 15.617-40.953 0-56.57-7.813-7.813-18.055-11.719-28.289-11.719s-20.477 3.906-28.289 11.711l-91.945 91.945c-27.75-17.508-60.594-27.656-95.766-27.656-99.25 0-180 80.75-180 180s80.75 180 180 180 180-80.75 180-180c0-35.172-10.148-68.016-27.656-95.773zM518 110c55.141 0 100 44.859 100 100s-44.859 100-100 100-100-44.859-100-100 44.859-100 100-100z" />
<glyph unicode="&#xe946;" glyph-name="save" d="M1019.673 319.859c-15.031-119.406-66.18-229.211-147.922-317.54-0.063-0.055-0.117-0.117-0.172-0.18l-51.969-55.469c-7.875-8.398-18.523-12.648-29.203-12.648-9.797 0-19.625 3.578-27.344 10.813-16.117 15.102-16.945 40.422-1.836 56.539l51.875 55.383c70.289 75.977 114.266 170.407 127.188 273.086 2.758 21.93 22.781 37.453 44.688 34.703 21.914-2.766 37.453-22.773 34.695-44.688zM832.806 272.867l-86.828-97.43c-7.906-8.867-18.867-13.383-29.883-13.383-9.469 0-18.977 3.344-26.602 10.141-16.492 14.703-17.953 39.984-3.25 56.477l87.055 97.68c0.164 0.188 0.336 0.375 0.508 0.555 5.977 6.461 9.375 14.383 10.313 22.531v9.375c-1.078 9.117-5.25 17.914-12.508 24.633-16.188 14.977-41.547 13.992-56.531-2.195l-146.899-159.93 4.406-4.719c31.375-33.898 47.609-77.82 45.836-123.797-1.781-45.984-21.359-88.516-55.133-119.774l-30.656-28.367c-7.695-7.125-17.438-10.648-27.156-10.648-10.766 0-21.492 4.313-29.375 12.836-15.008 16.211-14.031 41.531 2.188 56.531l30.625 28.344c18.117 16.766 28.602 39.547 29.555 64.164 0.953 24.625-7.742 48.149-24.484 66.234l-204.453 219c-7.383 7.969-17.258 12.516-27.938 12.93-10.695 0.406-20.875-3.359-28.719-10.617-7.633-7.055-11.836-16.43-12.633-26.055l0.008-6.742c0.727-8.523 4.133-16.883 10.352-23.648l136.625-145.563c15.125-16.117 14.32-41.43-1.789-56.555-16.109-15.117-41.43-14.313-56.555 1.797l-136.727 145.68c-0.070 0.070-0.125 0.141-0.195 0.211-19.031 20.563-29.445 46.055-31.477 72.031-0.031 0.328-0.047 0.656-0.078 0.992-0.328 4.656-0.391 9.336-0.18 14l-0.125 240.75c-0.063 3.492-0.047 6.992-0.008 10.492l-0.063 125.953c0 0.398 0.008 0.797 0.016 1.195 0.297 10.141-3.656 19.875-11.133 27.422-7.711 7.781-18.484 12.438-29.555 12.758-21.43 0.633-38.258-15.391-39.141-37.344l-0.063-337.43c0-0.297 0-0.594-0.008-0.891-2.93-129.914 42.852-252.696 128.906-345.727l51.883-55.391c15.109-16.117 14.281-41.438-1.844-56.539-7.711-7.234-17.539-10.813-27.344-10.813-10.672 0-21.32 4.242-29.195 12.648l-51.969 55.469c-0.055 0.063-0.117 0.125-0.172 0.18-100.195 108.266-153.547 250.844-150.274 401.508l0.062 337.672c0 0.391 0.008 0.773 0.016 1.164 1.922 65.453 53.359 115.524 117.813 115.524 1.219 0 2.445-0.016 3.672-0.055 31.852-0.93 61.695-13.867 84.047-36.422 5.617-5.664 10.578-11.766 14.867-18.219 12.922 19.094 27.727 36.984 44.289 53.313 138.235 136.297 361.579 134.711 497.868-3.516 15.203-15.422 28.727-31.977 40.57-49.391 3.969 6.102 8.508 11.883 13.633 17.266 21.828 22.906 51.484 36.039 83.485 36.969 66.141 1.883 121.555-49.859 123.477-115.469 0.016-0.383 0.016-0.773 0.016-1.164l0.047-217.391c0-22.094-17.906-40.008-40-40.016h-0.008c-22.094 0-40 17.906-40.008 40l-0.039 216.711c-0.422 10.297-4.766 19.773-12.266 26.719-7.742 7.172-17.922 10.922-28.875 10.633-10.805-0.32-20.719-4.648-27.914-12.203-7.133-7.477-10.883-17.414-10.578-27.977 0.016-0.398 0.023-0.797 0.023-1.195l-0.203-375.219c1.969-31.492-8.352-63.703-31.328-88.695zM749.9 473.883c58.594 105.149 41 236.914-44.102 323.227-105.313 106.82-277.899 108.039-384.712 2.719-86.797-85.57-105.461-220.438-46.844-325.883 3.461 0.156 6.945 0.195 10.445 0.063 32.039-1.242 61.672-14.883 83.445-38.414l89.695-96.070c36.398-7.352 74.391-7.188 110.711 0.469l87.719 95.492c24.992 27.008 59.539 39.914 93.641 38.398zM525.282 650.352h-26.617c-6.742 0-12.648 6.438-12.648 13.773v1.688c0 7.023 5.438 12.313 12.648 12.313h49.422c22.094 0 40.008 17.914 40.008 40.008s-17.914 40.008-40.008 40.008v6c0 22.094-17.914 40-40.008 40s-40.008-17.906-40.008-40v-11.195c-36.102-12.625-62.063-46.906-62.063-87.133v-1.688c0-51.711 41.563-93.781 92.656-93.781h26.617c7.297 0 12.805-5.156 12.805-12v-16.039c0-6.953-5.508-12.203-12.805-12.203h-81.211c-22.094 0-40.008-17.906-40.008-40.008 0-22.094 17.914-40 40.008-40h24v-4c0-22.094 17.914-40.008 40.008-40.008s40.008 17.914 40.008 40.008v6.82c40.188 10.125 70.008 46.359 70.008 89.391v16.031c0 50.742-41.641 92.016-92.813 92.016z" />
<glyph unicode="&#xe947;" glyph-name="protection" d="M960 738v-314c0-88.031-25.039-176.711-72.422-256.437-11.289-18.992-35.828-25.234-54.82-13.953-18.992 11.289-25.234 35.836-13.953 54.82 40.039 67.375 61.195 141.914 61.195 215.57v287.992l-369.922 164.211-366.078-164.109v-288.094c0-213.531 175.398-408 368-408 68.070 0 134.625 22.25 192.461 64.344 17.859 12.992 42.883 9.055 55.883-8.805 13-17.867 9.055-42.883-8.805-55.883-71.602-52.109-154.437-79.656-239.539-79.656-60.781 0-120.227 14.312-176.695 42.531-52.719 26.352-100.437 63.539-141.82 110.531-82.289 93.43-129.484 215.516-129.484 334.937v314c0 15.758 9.258 30.055 23.641 36.5l406 182c10.359 4.648 22.211 4.664 32.586 0.062l410-182c14.461-6.422 23.773-20.75 23.773-36.562zM511.961 180c22.094 0 40 17.906 40 40v23.164c55.023 7.687 96.039 52.945 96.039 109.336v9.82c0 30.227-11.828 58.461-33.312 79.5-21.187 20.75-49.391 32.18-79.414 32.18h-36.656c-17.625 0-32.508 15.57-32.508 34v14.586c0 17.906 13.977 31.414 32.508 31.414h34.656c10.187 0 20.727-6.82 20.727-18.234 0-22.094 17.906-40 40-40s40 17.906 40 40c0 47.937-35.398 87.945-82.039 96.516v25.719c0 22.094-17.906 40-40 40s-40-17.906-40-40v-27.094c-19.797-4.672-37.93-14.547-52.641-28.937-21.422-20.961-33.211-49.148-33.211-79.383v-14.586c0-62.859 50.469-114 112.508-114h36.656c18.352 0 32.727-13.914 32.727-31.68v-9.82c0-17.383-14.070-30.5-32.727-30.5h-59.57c-9.828 0-19.781 6.187-19.781 18 0 22.094-17.906 40-40 40s-40-17.906-40-40c0-53.719 41.891-96.039 96.039-97.914v-22.086c0-22.094 17.906-40 40-40z" />
<glyph unicode="&#xe948;" glyph-name="gantt-chart" d="M984 408c22.094 0 40 17.906 40 40v352c0 88.227-71.773 160-160 160h-704c-88.227 0-160-71.773-160-160v-704c0-88.227 71.773-160 160-160h704c88.227 0 160 71.773 160 160v116c0 22.094-17.906 40-40 40h-196v156zM708 16h-156v156h156zM80 644h156v-156h-156zM316 644h103.43l-103.43-103.43zM472 583.43v-95.43h-95.43zM472 724h-156v156h156zM552 880h156v-156h-156zM236 724h-91.43l91.43 91.43zM80 408h156v-156h-156zM316 408h156v-156h-156zM472 172v-156h-156v156zM552 408h101.43l-101.43-101.43zM552 488v156h156v-156zM788 644h156v-156h-156zM944 800v-76h-156v156h76c44.109 0 80-35.891 80-80zM160 880h27.43l-107.43-107.43v27.43c0 44.109 35.891 80 80 80zM80 96v76h156v-156h-76c-44.109 0-80 35.891-80 80zM864 16h-21.43l101.43 101.43v-21.43c0-44.109-35.891-80-80-80zM885.43 172l-97.43-97.43v97.43zM610.57 252l97.43 97.43v-97.43z" />
<glyph unicode="&#xe949;" glyph-name="exchange" d="M753.195 173.273c-13.57-34.273-36.594-63.18-66.578-83.602-30.422-20.719-66.602-31.672-104.617-31.672h-36v-82c0-22.094-17.906-40-40-40s-40 17.906-40 40v82h-62c-88.227 0-160 71.773-160 160 0 22.094 17.906 40 40 40s40-17.906 40-40c0-44.109 35.891-80 80-80h178c43.906 0 81 24.797 96.805 64.727 8.133 20.539 31.383 30.602 51.922 22.461 20.539-8.133 30.594-31.375 22.469-51.914zM582 506h-132c-58.453 0-106 47.547-106 106v40c0 58.453 47.547 106 106 106h128c44.109 0 80-35.891 80-80 0-22.094 17.906-40 40-40s40 17.906 40 40c0 88.227-71.773 160-160 160h-32v82c0 22.094-17.906 40-40 40s-40-17.906-40-40v-82h-16c-102.563 0-186-83.438-186-186v-40c0-102.563 83.438-186 186-186h132c43.555 0 80.695-24.906 96.922-65.008 6.297-15.563 21.281-25 37.094-25 4.992 0 10.078 0.938 14.992 2.93 20.477 8.289 30.359 31.609 22.070 52.086-28.281 69.859-95.43 114.992-171.078 114.992zM994.43 334.836l-78.273 77.57c-15.695 15.555-41.016 15.445-56.563-0.25-15.555-15.688-15.445-41.016 0.25-56.563l78.266-77.578c3.797-3.766 5.891-8.742 5.891-14.016s-2.094-10.25-5.891-14.016l-78.266-77.578c-15.695-15.547-15.805-40.875-0.25-56.563 7.813-7.891 18.109-11.844 28.406-11.844 10.18 0 20.359 3.859 28.156 11.594l78.273 77.57c19.070 18.898 29.57 44.055 29.57 70.836s-10.5 51.938-29.57 70.836zM164.156 733.594c15.695 15.547 15.805 40.875 0.25 56.563-15.547 15.695-40.875 15.805-56.563 0.25l-78.273-77.57c-19.070-18.898-29.57-44.055-29.57-70.836s10.5-51.938 29.57-70.836l78.273-77.57c7.797-7.734 17.977-11.594 28.156-11.594 10.297 0 20.594 3.953 28.406 11.844 15.555 15.688 15.445 41.016-0.25 56.563l-78.266 77.578c-3.797 3.766-5.891 8.742-5.891 14.016s2.094 10.25 5.891 14.016z" />
<glyph unicode="&#xe94a;" glyph-name="internet" d="M604.82 407.078c22.047 0 39.922 17.867 39.922 39.922 0 22.047-17.875 39.922-39.922 39.922h-53.898v158.25c44.75 1.258 88.469 4.617 130.055 9.891 10.398-39.43 18.016-82.477 22.086-127.797 1.969-21.961 21.391-38.188 43.328-36.195 21.961 1.977 38.164 21.375 36.195 43.336-4.18 46.508-11.766 91.477-22.359 133.586 37.977 7.68 73.141 17.141 104.438 28.211 50.039-70.414 79.492-156.438 79.492-249.203 0-18.344-1.164-36.797-3.453-54.859-2.773-21.875 12.711-41.859 34.578-44.625 1.711-0.219 3.398-0.328 5.078-0.328 19.805 0 36.992 14.742 39.555 34.906 2.711 21.383 4.086 43.219 4.086 64.906 0 136.492-53.148 264.82-149.664 361.336-96.523 96.516-224.844 149.664-361.336 149.664-0.195 0-0.391-0.023-0.578-0.031-0.477 0.008-0.945 0.031-1.422 0.031-136.492 0-264.813-53.156-361.336-149.664-96.508-96.523-149.664-224.844-149.664-361.336s53.156-264.82 149.664-361.336c96.516-96.516 224.844-149.664 361.336-149.664 0.484 0 0.953 0.023 1.438 0.023 0.188 0 0.367-0.023 0.563-0.023 29.781 0 59.633 2.578 88.727 7.68 21.719 3.805 36.242 24.492 32.438 46.211-0.273 1.563-0.656 3.070-1.102 4.555 3.563 11.977 1.5 25.438-6.789 36.023-13.594 17.359-38.688 20.422-56.047 6.82-6.453-5.055-12.828-9.133-19.305-12.336v146.008c12.664-0.359 25.25-0.891 37.672-1.594 21.992-1.273 40.867 15.594 42.109 37.602 1.25 22.016-15.586 40.875-37.602 42.117-13.906 0.781-28 1.359-42.172 1.742v156.242h53.891zM380.156 131.75c-5.094 10.195-9.914 20.82-14.445 31.828 33.797 3.82 69.133 6.313 105.367 7.367v-144.906c-32.875 16.648-64.656 53.188-90.922 105.711zM308.742 96.039c7.359-14.711 15.141-28.453 23.289-41.258-43.594 19.969-83.297 46.984-117.648 79.602 21.867 6.422 45.453 12.086 70.406 16.93 7.242-19.352 15.234-37.836 23.953-55.273zM157.836 199.969c-41.914 59.742-69.063 130.555-76.125 207.109h154.641c2.523-62.82 10.992-123.398 24.852-179.172-37.547-7.625-72.336-16.984-103.367-27.938zM158.937 695.617c30.836-10.805 65.438-20.055 102.742-27.594-14.148-56.305-22.773-117.563-25.328-181.102h-154.641c7.125 77.227 34.68 148.625 77.227 208.695zM471.078 725.055c-35.875 1.055-70.953 3.523-104.547 7.305 4.297 10.313 8.828 20.297 13.625 29.891 26.266 52.523 58.047 89.063 90.922 105.711zM308.742 797.953c-8.43-16.852-16.164-34.688-23.219-53.344-24.594 4.75-47.867 10.289-69.477 16.563 33.977 31.914 73.094 58.391 115.984 78.047-8.148-12.805-15.93-26.547-23.289-41.266zM340.734 655.133c41.703-5.313 85.523-8.695 130.344-9.961v-158.25h-154.82c2.586 59.547 10.922 116.5 24.477 168.211zM550.922 725.047v143.055c39.82-20.023 76.531-68.844 104.273-135.789-33.484-3.766-68.461-6.211-104.273-7.266zM697.266 827.352c-2.664 4.508-5.383 8.875-8.141 13.156 43.813-19.68 83.742-46.484 118.359-78.906-22.063-6.469-45.875-12.172-71.078-17.039-11.359 30.172-24.461 58-39.141 82.789zM471.078 250.82c-45.086-1.258-89.063-4.641-130.859-9.969-13.25 51.18-21.414 107.438-23.961 166.227h154.82zM1003.703 220.539l-214.828 171.969c-10.836 8.672-23.242 12.57-35.359 12.57-29.258 0-56.875-22.75-56.875-56.023v-285.063c0-32.43 26.875-54.141 55.039-54.141 12.859 0 25.984 4.523 36.953 14.625l50.609 46.625 55.070-112.711c6.922-14.172 21.125-22.406 35.898-22.406 5.883 0 11.852 1.305 17.492 4.063 19.813 9.68 28.023 33.586 18.344 53.398l-54.898 112.359 14.063 6.633 56.922 13.602c44.023 10.523 56.766 66.328 21.57 94.5zM906.656 190.094c-5.336-1.273-10.531-3.094-15.492-5.438l-84.211-39.711c-7.328-3.453-14.086-8-20.039-13.492l-10.43-9.609v178.305l135.805-108.711z" />
<glyph unicode="&#xe94b;" glyph-name="term" d="M944 296v424c0 44.109-35.891 80-80 80h-52v-40c0-22.094-17.906-40-40-40s-40 17.906-40 40v40h-182v-40c0-22.094-17.906-40-40-40s-40 17.906-40 40v40h-180v-40c0-22.094-17.906-40-40-40s-40 17.906-40 40v40h-50c-44.109 0-80-35.891-80-80v-624c0-44.109 35.891-80 80-80h704c44.109 0 80 35.891 80 80 0 22.094 17.906 40 40 40s40-17.906 40-40c0-88.227-71.773-160-160-160h-704c-88.227 0-160 71.773-160 160v624c0 88.227 71.773 160 160 160h50v40c0 22.094 17.906 40 40 40s40-17.906 40-40v-40h180v40c0 22.094 17.906 40 40 40s40-17.906 40-40v-40h182v40c0 22.094 17.906 40 40 40s40-17.906 40-40v-40h52c88.227 0 160-71.773 160-160v-424c0-22.094-17.906-40-40-40s-40 17.906-40 40zM550 558c0 22.094-17.906 40-40 40s-40-17.906-40-40v-258c0-22.094 17.906-40 40-40s40 17.906 40 40zM510 200c-22.094 0-40-17.906-40-40s17.906-40 40-40 40 17.906 40 40-17.906 40-40 40z" />
<glyph unicode="&#xe94c;" glyph-name="management-1" d="M501.805 416.211c3.383-0.125 6.781-0.211 10.195-0.211 149.984 0 272 122.023 272 272s-122.016 272-272 272-272-122.023-272-272c0-89.016 42.984-168.188 109.289-217.836-60.742-19.992-117.742-51.094-167.633-92.125-91.461-75.227-155.055-180.172-179.063-295.484-7.523-36.133 1.492-73.242 24.727-101.813 23.125-28.438 57.406-44.742 94.063-44.742h324.617c22.094 0 40 17.906 40 40s-17.906 40-40 40h-324.617c-17.070 0-27.375 9.531-31.992 15.211-7.984 9.813-11.070 22.578-8.477 35.039 41.539 199.523 217.617 345.234 420.891 349.961zM320 688c0 105.867 86.133 192 192 192s192-86.133 192-192c0-104.352-83.68-189.516-187.453-191.945-1.492 0.172-3.008 0.281-4.547 0.281-3.125 0-6.258-0.047-9.375-0.102-101.531 4.906-182.625 89.039-182.625 191.766zM944 328v26c0 22.094-17.906 40-40 40s-40-17.906-40-40v-26h-144v26c0 22.094-17.906 40-40 40s-40-17.906-40-40v-26c-44.109 0-80-35.891-80-80v-212c0-55.141 44.859-100 100-100h264c55.141 0 100 44.859 100 100v212c0 44.109-35.891 80-80 80zM924 16h-264c-11.031 0-20 8.969-20 20v162.102c0.664-0.031 1.32-0.102 2-0.102h300c0.672 0 1.336 0.070 2 0.102v-162.102c0-11.031-8.977-20-20-20z" />
<glyph unicode="&#xe94d;" glyph-name="money-transfer-1" d="M1024 744v-232c0-22.094-17.906-40-40-40s-40 17.906-40 40v232c0 44.109-35.891 80-80 80h-704c-44.109 0-80-35.891-80-80v-232c0-22.094-17.906-40-40-40s-40 17.906-40 40v232c0 88.227 71.773 160 160 160h704c88.227 0 160-71.773 160-160zM984 352c-22.094 0-40-17.906-40-40 0-44.109-35.891-80-80-80h-398c-22.094 0-40-17.906-40-40s17.906-40 40-40h398c88.227 0 160 71.773 160 160 0 22.094-17.906 40-40 40zM522.234 392.711c-22-2.031-38.18-21.508-36.148-43.508 1.922-20.75 19.352-36.32 39.789-36.32 1.227 0 2.477 0.055 3.727 0.172 50.75 4.688 97.609 29.531 131.945 69.945 33.828 39.805 52.453 91.391 52.453 145.242 0 119.109-90.617 216-202 216s-202-96.891-202-216c0-8.969 0.523-18.008 1.547-26.859 2.547-21.938 22.414-37.672 44.344-35.117 21.945 2.547 37.672 22.398 35.125 44.344-0.672 5.797-1.016 11.734-1.016 17.633 0 74.992 54.727 136 122 136s122-61.008 122-136c0-70.203-49.094-129.734-111.766-135.531zM870 530c0 22.094-17.906 40-40 40s-40-17.906-40-40 17.906-40 40-40 40 17.906 40 40zM234 530c0 22.094-17.906 40-40 40s-40-17.906-40-40 17.906-40 40-40 40 17.906 40 40zM306 232h-266c-22.094 0-40-17.906-40-40s17.906-40 40-40h266c22.094 0 40 17.906 40 40s-17.906 40-40 40zM366 392h-326c-22.094 0-40-17.906-40-40s17.906-40 40-40h326c22.094 0 40 17.906 40 40s-17.906 40-40 40zM246 72h-206c-22.094 0-40-17.906-40-40s17.906-40 40-40h206c22.094 0 40 17.906 40 40s-17.906 40-40 40z" />
<glyph unicode="&#xe94e;" glyph-name="suitcase-1" d="M864 797.93h-172.148v52.141c0 60.617-49.312 109.93-109.93 109.93h-139.852c-60.609 0-109.922-49.312-109.922-109.93v-52.141h-172.148c-88.227 0-160-71.781-160-160v-466c0-88.227 71.773-160 160-160h326c22.094 0 40 17.906 40 40s-17.906 40-40 40h-326c-44.109 0-80 35.891-80 80v304.070h394v-60.070c0-22.094 17.906-40 40-40s40 17.906 40 40v60.070h390v-50.070c0-22.094 17.906-40 40-40 22.086 0 39.992 17.906 39.992 40v212c0 88.219-71.773 160-159.992 160zM412.148 850.070c0 16.508 13.422 29.93 29.922 29.93h139.852c16.5 0 29.93-13.422 29.93-29.93v-52.141h-199.703zM80 556v81.93c0 44.109 35.891 80 80 80h704c44.109 0 80-35.891 80-80v-81.93zM1007.382 128.258l-38.492 27.734c0.078 2.008 0.117 4.008 0.117 6.008 0 2.43-0.078 4.859-0.187 7.289-0.039 0.781-0.086 1.562-0.133 2.344-0.047 0.766-0.070 1.531-0.125 2.297l39.711 30.328c15.648 11.953 20.273 33.508 10.906 50.82l-18 33.281c-9.414 17.406-30.148 25.312-48.758 18.594l-47.289-17.062c-5.953 4.484-12.227 8.484-18.727 12.086-0.578 0.32-1.148 0.648-1.727 0.961-1.633 0.875-3.281 1.711-4.937 2.531-0.859 0.422-1.711 0.844-2.578 1.25-0.766 0.367-1.516 0.766-2.289 1.117l-8.5 47.258c-3.43 19.047-20.008 32.914-39.367 32.914h-38c-19.953 0-36.852-14.703-39.617-34.453l-6.406-45.766c-11.773-5.328-22.852-12.070-33.016-20.094l-46.414 14.492c-18.695 5.836-38.875-2.719-47.664-20.219l-17.633-35.070c-8.984-17.891-3.375-39.664 13.141-50.969l37.812-25.891c-0.133-2.656-0.203-5.336-0.203-8.031 0-2.437 0.070-4.883 0.187-7.32 0.031-0.836 0.094-1.664 0.141-2.5 0.055-0.836 0.078-1.672 0.148-2.508l-38.328-30.359c-15.703-12.445-19.781-34.586-9.539-51.805l18.758-31.523c9.789-16.461 29.883-23.672 47.914-17.195l43.937 15.805c9.586-7.297 19.945-13.477 30.906-18.43l8.508-47.25c3.43-19.055 20.008-32.914 39.367-32.914h36c19.648 0 36.391 14.273 39.492 33.68l7.367 46.016c13.383 5.922 25.852 13.656 37.148 23.039l45.461-13.453c18.555-5.492 38.398 3.094 47.086 20.391l16.172 32.164c8.828 17.555 3.594 38.922-12.352 50.414zM729.132 166.438c0.008 0.18 0.031 0.367 0.039 0.547 0.086 1.328 0.195 2.664 0.352 3.992 0.008 0.109 0.031 0.227 0.039 0.344 0.172 1.398 0.367 2.805 0.609 4.203 0.016 0.070 0.023 0.148 0.039 0.219 0.242 1.398 0.523 2.797 0.844 4.18 3.352 14.594 10.695 27.672 20.836 38.016 0.25 0.266 0.508 0.531 0.766 0.789 0.812 0.805 1.633 1.594 2.477 2.359 0.164 0.148 0.328 0.289 0.484 0.437 1.703 1.523 3.469 2.984 5.297 4.359 0.125 0.094 0.242 0.195 0.367 0.281 2.906 2.172 5.969 4.133 9.156 5.898 0.234 0.133 0.469 0.266 0.703 0.391 1 0.539 2.023 1.062 3.055 1.562 0.32 0.164 0.656 0.305 0.977 0.453 1.633 0.766 3.297 1.477 4.984 2.133 0.68 0.258 1.367 0.523 2.055 0.766 0.797 0.289 1.602 0.562 2.414 0.82 1.109 0.352 2.219 0.68 3.344 0.984 6.703 1.836 13.758 2.828 21.039 2.828 7.43 0 14.617-1.039 21.453-2.945 1.109-0.305 2.211-0.641 3.305-0.992 0.648-0.211 1.297-0.43 1.937-0.656 0.969-0.344 1.922-0.711 2.867-1.094 0.906-0.359 1.797-0.734 2.687-1.125 0.961-0.422 1.922-0.859 2.859-1.328 0.703-0.336 1.391-0.695 2.070-1.062 0.773-0.398 1.523-0.82 2.281-1.25 0.641-0.367 1.281-0.719 1.914-1.102 1.203-0.734 2.391-1.5 3.562-2.297 0.57-0.391 1.125-0.797 1.687-1.203 0.805-0.578 1.594-1.172 2.375-1.773 0.508-0.391 1.008-0.781 1.5-1.18 1.172-0.961 2.32-1.945 3.437-2.969 0.359-0.328 0.695-0.664 1.047-1 0.883-0.836 1.742-1.687 2.594-2.562 9.758-10.133 16.867-22.812 20.234-36.937 0.25-1.070 0.492-2.141 0.703-3.219 0.094-0.492 0.18-0.992 0.266-1.484 0.18-1.039 0.344-2.078 0.484-3.125 0.062-0.492 0.133-0.992 0.187-1.484 0.125-1.102 0.227-2.203 0.305-3.305 0.031-0.437 0.078-0.867 0.102-1.305 0.086-1.531 0.141-3.062 0.141-4.602 0-2.758-0.148-5.531-0.43-8.281-0.016-0.125-0.031-0.25-0.047-0.375-0.133-1.227-0.289-2.453-0.477-3.672-0.078-0.492-0.18-0.977-0.266-1.469-0.141-0.82-0.281-1.648-0.453-2.469-2.852-13.773-9.273-26.242-18.227-36.437-1.156-1.32-2.336-2.609-3.562-3.836-0.281-0.273-0.57-0.539-0.852-0.805-0.953-0.937-1.937-1.836-2.93-2.711-0.531-0.469-1.070-0.945-1.617-1.406-1.109-0.922-2.242-1.82-3.391-2.68-0.727-0.539-1.461-1.055-2.203-1.562-0.633-0.445-1.266-0.867-1.906-1.289-1.203-0.781-2.422-1.531-3.664-2.25-0.734-0.43-1.469-0.852-2.219-1.258-0.805-0.43-1.617-0.844-2.437-1.25-0.875-0.43-1.758-0.836-2.648-1.234-0.937-0.422-1.891-0.836-2.852-1.219-1.148-0.461-2.305-0.906-3.484-1.312-0.57-0.195-1.141-0.398-1.719-0.586-1.633-0.523-3.281-1.016-4.953-1.437-6.297-1.602-12.883-2.453-19.664-2.453-7.414 0-14.586 1.031-21.406 2.93-1.148 0.32-2.281 0.664-3.414 1.031-0.641 0.211-1.273 0.422-1.914 0.648-1 0.352-1.984 0.734-2.969 1.133-0.969 0.383-1.914 0.789-2.859 1.211-0.875 0.391-1.742 0.789-2.602 1.211-0.742 0.359-1.469 0.742-2.195 1.125-0.711 0.375-1.414 0.766-2.117 1.164-1 0.578-2 1.164-2.977 1.781-0.852 0.539-1.703 1.078-2.539 1.648-0.664 0.453-1.32 0.93-1.969 1.406-0.695 0.508-1.383 1.023-2.062 1.555-0.586 0.453-1.172 0.898-1.742 1.375-1.109 0.914-2.195 1.859-3.258 2.828-0.492 0.453-0.969 0.922-1.453 1.383-0.742 0.727-1.477 1.461-2.203 2.219-9.695 10.094-16.766 22.711-20.125 36.773-0.266 1.109-0.516 2.234-0.727 3.352-0.094 0.461-0.172 0.922-0.25 1.375-0.187 1.078-0.352 2.156-0.5 3.234-0.062 0.469-0.125 0.937-0.18 1.406-0.125 1.117-0.227 2.234-0.305 3.359-0.031 0.414-0.078 0.836-0.102 1.258-0.086 1.531-0.141 3.062-0.141 4.594 0 1.469 0.047 2.945 0.133 4.43z" />
<glyph unicode="&#xe94f;" glyph-name="stats" d="M334 16h-210.617c-17.070 0-27.375 9.531-31.992 15.211-7.984 9.813-11.070 22.578-8.477 35.039 41.539 199.523 217.617 345.234 420.891 349.961 3.383-0.125 6.781-0.211 10.195-0.211 3.391 0 6.758 0.086 10.125 0.211 52.813-1.266 105.344-12.43 156.281-33.242 20.453-8.352 43.805 1.453 52.156 21.906 8.352 20.445-1.453 43.797-21.906 52.156-11.422 4.664-22.914 8.898-34.477 12.742 66.602 49.625 109.82 128.969 109.82 218.227 0 149.977-122.023 272-272 272-149.984 0-272-122.023-272-272 0-89.016 42.984-168.188 109.289-217.836-60.742-19.992-117.742-51.094-167.633-92.125-91.461-75.234-155.055-180.172-179.063-295.484-7.523-36.133 1.492-73.242 24.727-101.813 23.125-28.438 57.406-44.742 94.063-44.742h210.617c22.094 0 40 17.906 40 40s-17.906 40-40 40zM322 688c0 105.867 86.133 192 192 192s192-86.133 192-192c0-102.82-81.242-187.016-182.906-191.781-3.031 0.055-6.063 0.117-9.094 0.117-3.125 0-6.258-0.047-9.375-0.102-101.531 4.906-182.625 89.039-182.625 191.766zM1026 240v-138c0-22.094-17.906-40-40-40s-40 17.906-40 40v97.008l-136.867-136.531c-34.734-34.648-90.297-35.844-126.484-2.734l-20.406 18.672c-4.609 4.211-11.867 3.977-16.18-0.539l-123.078-129.438c-7.859-8.266-18.414-12.438-28.992-12.438-9.898 0-19.813 3.648-27.555 11.016-16.008 15.219-16.648 40.539-1.422 56.547l123.133 129.5c16.703 17.484 39.125 27.523 63.195 28.336 24.086 0.797 47.125-7.695 64.898-23.961l20.406-18.672c4.57-4.18 11.594-4.031 15.984 0.352l141.234 140.883h-99.867c-22.094 0-40 17.906-40 40s17.906 40 40 40h132c55.141 0 100-44.859 100-100z" />
<glyph unicode="&#xe950;" glyph-name="profit" d="M928.305 933.055c-48.773 17.375-112.813 26.945-180.305 26.945s-131.531-9.57-180.305-26.945c-79.094-28.18-95.695-68.375-95.695-97.133v-372.969c-4.945 2.086-10.148 4.125-15.695 6.102-48.773 17.375-112.813 26.945-180.305 26.945-67.289 0-131.469-10.008-180.719-28.172-78.75-29.039-95.281-69.352-95.281-98.055 0-1.289 0.047-2.617 0.117-3.953-0.047-0.781-0.117-1.555-0.117-2.352v-303.391c0-28.758 16.602-68.953 95.695-97.133 48.773-17.375 112.813-26.945 180.305-26.945s131.531 9.57 180.305 26.945c23.828 8.492 41.953 18.078 55.695 28.109 13.742-10.031 31.867-19.617 55.695-28.109 48.773-17.375 112.813-26.945 180.305-26.945s131.531 9.57 180.305 26.945c79.094 28.18 95.695 68.375 95.695 97.133v775.844c0 28.758-16.602 68.953-95.695 97.133zM607.344 861.883c38.836 11.68 88.781 18.117 140.656 18.117s101.82-6.438 140.656-18.117c32.25-9.703 47.742-20.32 53.438-25.961-5.695-5.648-21.188-16.266-53.438-25.969-38.836-11.68-88.781-18.117-140.656-18.117s-101.82 6.438-140.656 18.117c-32.25 9.703-47.742 20.32-53.438 25.969 5.695 5.641 21.188 16.258 53.438 25.961zM135.172 396.93c39.094 12.297 89.102 19.070 140.828 19.070 51.875 0 101.82-6.438 140.656-18.117 32.484-9.773 47.977-20.477 53.563-26.094-5.492-5.75-20.867-16.797-53.391-27.031-39.094-12.297-89.102-19.063-140.828-19.063-51.875 0-101.82 6.43-140.656 18.117-32.484 9.773-47.977 20.477-53.563 26.086 5.492 5.758 20.867 16.805 53.391 27.031zM416.656 34.117c-38.836-11.68-88.781-18.117-140.656-18.117s-101.82 6.438-140.656 18.117c-37.023 11.141-51.969 23.484-55.344 28.125v61.539c5.070-2.078 10.422-4.109 16.125-6.070 48.266-16.594 112.148-25.727 179.875-25.727 27.625 0 54.727 1.508 80.578 4.484 21.945 2.523 37.688 22.367 35.156 44.313-2.523 21.945-22.359 37.688-44.313 35.164-22.813-2.633-46.852-3.961-71.422-3.961-52.031 0-101.922 6.094-140.477 17.172-36.852 10.578-51.977 22.5-55.523 27.086v62.5c4.945-2.086 10.148-4.125 15.695-6.102 48.773-17.375 112.813-26.945 180.305-26.945 67.289 0 131.469 10 180.719 28.164 5.391 1.992 10.461 4.031 15.281 6.117v-217.734c-3.375-4.641-18.32-16.984-55.344-28.125zM888.656 34.117c-38.836-11.68-88.781-18.117-140.656-18.117s-101.82 6.438-140.656 18.117c-37.023 11.141-51.961 23.484-55.344 28.125v61.18c4.945-2.094 10.148-4.133 15.695-6.109 48.773-17.375 112.813-26.945 180.305-26.945 27.625 0 54.813 1.594 80.813 4.75 21.93 2.656 37.555 22.586 34.898 44.516s-22.617 37.57-44.523 34.898c-22.813-2.766-46.766-4.164-71.188-4.164-51.875 0-101.828 6.438-140.656 18.117-37.039 11.148-51.977 23.492-55.344 28.125v62.75c4.945-2.086 10.148-4.125 15.695-6.102 48.773-17.375 112.805-26.953 180.305-26.953 27.625 0 54.813 1.602 80.805 4.75 21.93 2.656 37.563 22.586 34.898 44.516-2.656 21.938-22.609 37.563-44.516 34.898-22.813-2.758-46.766-4.164-71.195-4.164-51.867 0-101.82 6.438-140.648 18.125-37.039 11.141-51.977 23.484-55.352 28.125v64.414c4.953-2.086 10.156-4.125 15.703-6.102 48.773-17.375 112.805-26.945 180.297-26.945 27.633 0 54.82 1.594 80.813 4.742 21.93 2.656 37.555 22.586 34.898 44.523-2.656 21.93-22.609 37.578-44.516 34.891-22.82-2.758-46.766-4.156-71.195-4.156-51.875 0-101.82 6.43-140.656 18.117-37.039 11.141-51.969 23.484-55.344 28.125v60.883c4.945-2.086 10.156-4.125 15.703-6.102 48.773-17.375 112.813-26.945 180.305-26.945 27.625 0 54.813 1.594 80.813 4.742 21.93 2.656 37.555 22.594 34.898 44.523s-22.617 37.563-44.523 34.898c-22.813-2.766-46.766-4.164-71.188-4.164-51.875 0-101.82 6.438-140.656 18.117-37.039 11.148-51.977 23.492-55.344 28.125v60.641c4.945-2.086 10.148-4.125 15.695-6.102 48.773-17.375 112.813-26.945 180.305-26.945s131.531 9.57 180.305 26.945c5.539 1.977 10.75 4.016 15.695 6.102v-682.641c-3.375-4.641-18.32-16.984-55.344-28.125zM77.844 795.594c-15.695 15.547-15.805 40.875-0.25 56.563l77.563 78.266c18.898 19.070 44.055 29.578 70.836 29.578s51.938-10.5 70.836-29.57l77.578-78.273c15.555-15.688 15.445-41.016-0.25-56.563-15.688-15.555-41.016-15.445-56.563 0.25l-51.594 52.047v-231.891c0-22.094-17.906-40-40-40s-40 17.906-40 40v231.898l-51.594-52.055c-7.813-7.891-18.109-11.844-28.406-11.844-10.18 0-20.359 3.859-28.156 11.594z" />
<glyph unicode="&#xe951;" glyph-name="planning" d="M1024 720v-260c0-22.094-17.906-40-40-40s-40 17.906-40 40v260c0 44.109-35.891 80-80 80h-52v-40c0-22.094-17.906-40-40-40s-40 17.906-40 40v40h-182v-40c0-22.094-17.906-40-40-40s-40 17.906-40 40v40h-180v-40c0-22.094-17.906-40-40-40s-40 17.906-40 40v40h-50c-44.109 0-80-35.891-80-80v-624c0-44.109 35.891-80 80-80h172c22.094 0 40-17.906 40-40s-17.906-40-40-40h-172c-88.227 0-160 71.773-160 160v624c0 88.227 71.773 160 160 160h50v40c0 22.094 17.906 40 40 40s40-17.906 40-40v-40h180v40c0 22.094 17.906 40 40 40s40-17.906 40-40v-40h182v40c0 22.094 17.906 40 40 40s40-17.906 40-40v-40h52c88.227 0 160-71.773 160-160zM290 540c0 22.094-17.906 40-40 40s-40-17.906-40-40 17.906-40 40-40 40 17.906 40 40zM598 500c22.094 0 40 17.906 40 40s-17.906 40-40 40-40-17.906-40-40 17.906-40 40-40zM772 500c22.094 0 40 17.906 40 40s-17.906 40-40 40-40-17.906-40-40 17.906-40 40-40zM290 366c0 22.094-17.906 40-40 40s-40-17.906-40-40 17.906-40 40-40 40 17.906 40 40zM250 232c-22.094 0-40-17.906-40-40s17.906-40 40-40 40 17.906 40 40-17.906 40-40 40zM424 500c22.094 0 40 17.906 40 40s-17.906 40-40 40-40-17.906-40-40 17.906-40 40-40zM384 366c0-22.094 17.906-40 40-40s40 17.906 40 40-17.906 40-40 40-40-17.906-40-40zM464 192c0 22.094-17.906 40-40 40s-40-17.906-40-40 17.906-40 40-40 40 17.906 40 40zM558 366c0-22.094 17.906-40 40-40s40 17.906 40 40-17.906 40-40 40-40-17.906-40-40zM924 340h-132c-22.094 0-40-17.906-40-40s17.906-40 40-40h99.867l-141.234-140.883c-4.391-4.383-11.406-4.531-15.977-0.352l-20.414 18.672c-17.773 16.266-40.836 24.758-64.891 23.961-24.078-0.813-46.5-10.852-63.195-28.336l-123.141-129.5c-15.227-16.008-14.586-41.328 1.422-56.547 7.742-7.367 17.656-11.016 27.555-11.016 10.578 0 21.133 4.172 28.992 12.438l123.086 129.438c4.305 4.516 11.563 4.758 16.172 0.539l20.406-18.672c36.195-33.109 91.75-31.914 126.484 2.734l136.867 136.531v-97.008c0-22.094 17.906-40 40-40s40 17.906 40 40v138c0 55.141-44.859 100-100 100z" />
<glyph unicode="&#xe952;" glyph-name="statistics-report" d="M837.773 296v504c0 44.109-35.883 80-80 80h-491.773c-44.109 0-80-35.891-80-80v-704c0-44.109 35.891-80 80-80h491.781c44.109 0 80 35.891 80 80 0 22.094 17.906 40 40 40 22.086 0 40-17.906 40-40 0-88.227-71.781-160-160-160h-491.781c-88.227 0-160 71.773-160 160v704c0 88.227 71.773 160 160 160h491.781c88.219 0 160-71.773 160-160v-504c0-22.094-17.914-40-40-40-22.094 0-40.008 17.906-40.008 40zM438 588c0 33.141-26.867 60-60 60s-60-26.859-60-60 26.867-60 60-60 60 26.859 60 60zM642 248c33.133 0 60 26.859 60 60s-26.867 60-60 60-60-26.859-60-60 26.859-60 60-60zM352.547 257.141c7.453-6.148 16.469-9.141 25.43-9.141 11.531 0 22.969 4.961 30.875 14.547l264 320c14.063 17.039 11.641 42.25-5.398 56.305s-42.25 11.641-56.313-5.398l-264-320c-14.055-17.039-11.633-42.25 5.406-56.313z" />
</font>
</defs>
</svg>
